<?xml version="1.0" standalone="no"?>
<!DOCTYPE svg PUBLIC "-//W3C//DTD SVG 20010904//EN"
 "http://www.w3.org/TR/2001/REC-SVG-20010904/DTD/svg10.dtd">
<svg version="1.0" xmlns="http://www.w3.org/2000/svg"
 width="1024.000000pt" height="1024.000000pt" viewBox="0 0 1024.000000 1024.000000"
 preserveAspectRatio="xMidYMid meet">

<g transform="translate(0.000000,1024.000000) scale(0.100000,-0.100000)"
fill="#000000" stroke="none">
<path d="M0 5120 l0 -5120 5120 0 5120 0 0 5120 0 5120 -5120 0 -5120 0 0
-5120z m5605 3696 c631 -108 1121 -352 1559 -776 581 -563 880 -1283 880
-2120 0 -272 -19 -447 -73 -685 -34 -147 -26 -135 -88 -135 -47 0 -54 2 -49
18 3 9 17 67 30 127 185 822 30 1650 -431 2314 -253 363 -629 685 -1041 891
-451 225 -976 322 -1508 280 -683 -55 -1265 -321 -1753 -803 -379 -374 -645
-851 -755 -1352 -53 -239 -82 -555 -71 -775 8 -168 46 -439 83 -587 l28 -113
-57 0 -56 0 -32 143 c-91 412 -101 790 -30 1206 105 617 387 1146 850 1596
355 345 803 597 1270 715 271 69 474 90 824 85 235 -3 290 -6 420 -29z m-245
-472 c102 -18 236 -62 322 -105 232 -115 449 -330 561 -555 43 -85 94 -245
112 -349 21 -122 23 -339 6 -460 -26 -178 -113 -395 -214 -531 -73 -100 -217
-238 -311 -299 -87 -57 -198 -115 -218 -115 -7 0 -27 14 -44 31 l-33 32 92 46
c532 267 769 853 587 1446 -29 92 -108 244 -170 327 -262 347 -725 520 -1160
432 -482 -98 -842 -477 -916 -964 -21 -144 -19 -247 11 -425 l7 -40 -51 0 -50
0 -13 70 c-7 39 -12 138 -12 225 1 220 37 377 129 562 149 300 408 528 715
628 202 66 434 81 650 44z m30 -249 c360 -97 627 -366 727 -730 25 -91 27
-115 27 -275 1 -195 -12 -263 -77 -417 -108 -255 -333 -463 -601 -557 l-65
-23 -63 30 c-35 17 -65 34 -69 38 -3 5 -16 61 -29 124 -19 86 -28 114 -38 110
-8 -3 -41 -5 -76 -5 l-61 0 -24 -85 -23 -85 -39 0 c-22 0 -39 3 -39 8 0 4 11
43 24 86 14 44 23 83 21 87 -3 4 -21 10 -41 14 -20 3 -60 17 -88 29 l-52 23
-52 -100 -52 -100 0 79 c0 61 5 88 21 118 l20 38 -23 16 c-13 8 -55 48 -95 88
-55 56 -83 95 -119 169 -36 73 -52 94 -63 90 -9 -4 -62 -22 -119 -42 -88 -31
-109 -34 -144 -27 -40 9 -42 12 -55 59 -7 28 -18 102 -25 165 -30 294 78 592
292 808 152 154 326 244 554 288 112 21 328 11 446 -21z m-1219 -1391 c183
-31 331 -104 394 -193 29 -41 30 -49 35 -167 3 -69 3 -132 -1 -141 -3 -8 -22
-21 -42 -28 l-37 -13 0 39 c0 22 -2 39 -5 39 -3 0 -24 -12 -48 -27 -23 -15
-85 -41 -137 -59 l-95 -31 -6 -89 c-5 -77 -11 -98 -42 -158 -31 -58 -37 -64
-37 -40 l0 29 -195 0 -196 0 3 -80 3 -80 90 -9 c52 -5 127 -5 182 0 l93 9 0
-42 0 -41 -77 -8 c-43 -4 -126 -4 -185 -1 l-108 7 0 -85 0 -84 34 -7 c52 -9
211 -10 298 -1 l78 8 17 -35 c9 -20 14 -38 12 -41 -3 -2 -58 -9 -124 -15 -208
-20 -430 12 -581 84 -91 43 -137 84 -171 154 l-28 57 -3 375 c-2 246 0 387 7
411 16 54 65 115 124 154 67 45 197 92 301 109 115 20 332 19 447 0z m876
-589 c381 -62 634 -329 585 -617 -17 -95 -54 -162 -129 -235 -75 -72 -173
-124 -288 -153 -118 -30 -317 -28 -450 5 -411 102 -637 423 -502 715 30 65
139 169 217 206 182 87 362 112 567 79z m-3265 -1374 c53 -21 58 -25 63 -59 4
-20 11 -59 16 -85 5 -26 9 -55 9 -62 0 -27 -29 -16 -46 18 -53 103 -133 157
-232 157 -146 0 -223 -91 -245 -289 -23 -208 51 -400 178 -460 53 -25 133 -28
175 -6 l30 16 0 110 c0 61 -4 118 -10 128 -5 10 -23 24 -39 31 -34 14 -48 38
-26 46 8 3 72 4 142 2 108 -2 128 -5 131 -19 2 -10 -5 -19 -17 -22 -32 -8 -41
-48 -41 -171 l0 -114 -35 -26 c-134 -102 -388 -78 -519 49 -91 88 -141 258
-120 407 25 173 148 319 304 363 75 21 207 14 282 -14z m611 -26 c11 -27 64
-180 119 -340 54 -159 107 -310 116 -335 18 -50 67 -110 88 -110 8 0 14 -9 14
-20 0 -19 -7 -20 -155 -20 -145 0 -155 1 -155 19 0 13 9 20 30 25 51 10 56 40
25 132 -15 43 -32 85 -37 92 -8 8 -48 12 -138 12 l-128 0 -17 -72 c-20 -85
-21 -138 -3 -150 7 -5 25 -11 41 -15 18 -3 27 -12 27 -24 0 -18 -10 -19 -130
-19 -117 0 -130 2 -130 18 0 9 13 24 29 34 53 29 62 51 232 547 45 130 86 246
90 259 7 18 15 23 36 20 23 -2 31 -12 46 -53z m6267 39 c197 -44 320 -213 320
-439 0 -122 -34 -226 -100 -304 -22 -26 -32 -32 -42 -23 -15 12 -32 4 -36 -18
-2 -11 1 -10 12 3 8 10 17 14 20 9 14 -23 -80 -76 -170 -96 -57 -12 -87 -14
-157 -6 -99 12 -190 45 -167 61 11 8 10 9 -7 4 -18 -5 -33 4 -72 43 -55 55
-95 127 -111 199 -15 64 -15 208 0 263 31 116 109 214 215 268 107 54 177 63
295 36z m-5524 -298 c57 -159 104 -298 104 -309 0 -13 3 -18 10 -11 8 8 106
271 191 516 l34 98 103 0 c94 0 102 -1 102 -19 0 -11 -9 -22 -20 -26 -11 -3
-29 -18 -41 -33 -20 -26 -21 -34 -15 -172 4 -80 13 -228 20 -329 l14 -185 31
-28 c17 -15 38 -28 46 -28 8 0 15 -9 15 -20 0 -19 -7 -20 -160 -20 -150 0
-160 1 -160 19 0 14 10 21 35 25 46 9 55 29 55 123 0 89 -28 474 -35 481 -5 6
0 21 -81 -213 -109 -317 -116 -335 -127 -328 -6 3 -7 1 -3 -5 11 -19 -15 -92
-33 -92 -17 0 -34 41 -174 415 -74 199 -75 201 -81 194 -4 -3 -16 -200 -30
-451 -4 -79 13 -115 58 -124 26 -4 36 -11 36 -25 0 -18 -9 -19 -130 -19 -118
0 -130 2 -130 18 0 11 11 21 32 27 54 16 65 51 78 225 6 85 13 230 17 323 6
164 6 168 -16 191 -13 14 -34 27 -47 30 -15 4 -24 14 -24 27 0 19 5 20 111 17
l111 -3 104 -289z m1063 283 c155 -33 227 -172 152 -291 -17 -26 -48 -57 -70
-70 -43 -24 -52 -38 -26 -38 24 0 108 -45 132 -72 91 -97 56 -271 -65 -332
-74 -37 -140 -46 -337 -46 -174 0 -185 1 -185 19 0 13 9 20 30 24 58 12 61 30
58 396 -3 304 -4 330 -22 349 -10 12 -31 24 -47 27 -20 5 -29 13 -29 26 0 18
9 19 180 19 98 0 201 -5 229 -11z m631 -8 c0 -11 -8 -22 -18 -25 -11 -4 -29
-17 -42 -31 -23 -24 -23 -25 -24 -352 -1 -180 2 -336 6 -345 7 -15 23 -18 98
-18 49 0 101 5 117 11 46 17 81 58 94 110 10 37 17 49 32 49 21 0 21 -7 1
-187 l-6 -53 -284 0 c-273 0 -284 1 -284 19 0 13 9 21 30 26 59 13 60 17 60
377 0 226 -4 335 -12 352 -6 15 -26 31 -45 38 -21 8 -33 19 -33 30 0 17 12 18
155 18 147 0 155 -1 155 -19z m943 -48 c15 -157 1 -184 -50 -91 -42 77 -65 90
-165 93 -134 5 -128 13 -128 -165 l0 -150 88 0 c79 0 91 2 109 23 11 12 24 32
28 45 3 12 12 22 20 22 16 0 25 -31 25 -91 0 -72 -12 -169 -21 -169 -5 0 -20
18 -33 39 -28 44 -57 56 -153 66 l-63 7 0 -171 c0 -125 3 -172 13 -178 6 -4
52 -7 100 -6 125 2 171 26 212 110 17 35 36 63 43 63 15 0 16 -63 1 -165 l-11
-75 -294 0 c-276 0 -294 1 -294 18 0 11 13 23 35 31 19 7 39 20 45 30 5 11 10
156 11 344 1 358 1 362 -61 387 -18 8 -30 20 -30 31 0 18 13 19 284 19 l283 0
6 -67z m594 42 c63 -21 124 -71 147 -119 23 -49 20 -122 -8 -181 -23 -51 -88
-118 -124 -129 -18 -6 -12 -20 69 -155 80 -135 122 -186 174 -217 31 -18 7
-34 -51 -34 -61 0 -116 19 -152 53 -36 33 -105 154 -96 168 4 7 3 9 -3 6 -5
-3 -24 25 -43 62 -32 67 -34 69 -77 75 -25 3 -49 3 -54 0 -12 -7 -12 -246 1
-278 6 -17 22 -29 50 -37 28 -9 40 -18 40 -31 0 -17 -11 -18 -160 -18 -150 0
-160 1 -160 19 0 12 9 21 25 25 14 4 35 21 46 39 19 31 19 47 17 360 l-3 329
-28 24 c-15 13 -36 24 -45 24 -11 0 -18 8 -18 21 0 21 2 21 201 17 159 -4 211
-9 252 -23z m777 -4 c59 -24 127 -76 148 -115 33 -61 24 -181 -17 -252 -28
-47 -99 -99 -158 -115 -21 -5 -78 -9 -125 -8 l-87 2 3 -114 c2 -63 8 -126 13
-140 10 -26 45 -49 74 -49 8 0 15 -9 15 -20 0 -19 -7 -20 -166 -20 -152 0
-165 1 -162 18 2 9 13 18 24 20 12 2 31 13 42 25 21 22 21 33 22 358 2 367 2
370 -55 390 -20 8 -31 18 -31 31 0 19 6 20 201 16 179 -4 206 -7 259 -27z
m626 18 c138 -22 225 -106 222 -215 -2 -92 -48 -164 -141 -225 l-24 -15 83
-138 c45 -76 95 -152 110 -170 15 -17 25 -38 23 -46 -4 -12 -3 -12 5 -1 7 10
14 11 31 1 57 -30 -34 -52 -119 -29 -65 19 -112 74 -189 224 l-66 130 -50 0
-50 0 1 -131 c1 -77 6 -139 13 -152 6 -12 29 -27 51 -33 28 -9 40 -18 40 -31
0 -17 -11 -18 -163 -18 -144 0 -164 2 -164 16 0 9 15 23 33 30 18 8 38 23 44
33 6 13 10 143 10 356 l0 336 -25 24 c-13 14 -33 25 -45 25 -13 0 -20 7 -20
20 0 19 7 20 163 20 89 0 191 -5 227 -11z m-4750 -1291 c414 -748 1117 -1394
1957 -1800 l144 -70 172 85 c513 254 880 517 1277 916 96 97 179 175 183 173
12 -4 67 44 60 52 -3 3 -17 -6 -30 -20 -13 -15 -26 -24 -29 -21 -3 2 44 66
104 141 121 150 252 340 356 514 l67 112 60 0 c32 0 59 -3 59 -8 0 -4 -8 -19
-17 -32 -10 -14 -25 -38 -34 -55 -9 -16 -21 -30 -27 -30 -6 0 -14 -4 -19 -9
-5 -5 -3 -6 5 -2 17 10 15 -1 -10 -45 -11 -21 -26 -35 -31 -32 -6 3 -7 1 -3
-5 13 -22 -247 -398 -266 -385 -7 3 -8 1 -4 -6 8 -13 -62 -104 -74 -96 -4 3
-13 -2 -20 -10 -7 -8 -18 -15 -25 -15 -7 0 -18 -6 -25 -14 -6 -8 -17 -13 -25
-10 -7 3 -15 2 -18 -3 -3 -4 6 -9 19 -9 13 -1 24 2 24 7 0 5 8 12 18 16 9 3
25 13 35 21 9 8 17 11 17 5 0 -13 -35 -45 -42 -37 -3 3 -5 -1 -4 -9 3 -31
-261 -309 -478 -501 -63 -57 -79 -67 -88 -55 -8 11 -9 11 -4 -3 4 -13 -11 -31
-50 -63 -31 -25 -61 -42 -66 -38 -6 3 -8 1 -5 -4 4 -6 -25 -34 -64 -63 -51
-38 -73 -49 -79 -40 -5 9 -9 9 -14 1 -4 -6 -2 -11 5 -11 9 0 10 -3 3 -10 -6
-6 -18 -8 -27 -4 -17 6 -23 29 -9 37 4 2 1 2 -5 1 -7 -2 -13 1 -13 6 0 13 -37
13 -44 1 -4 -5 3 -7 14 -4 23 6 24 1 9 -30 -9 -20 -9 -21 4 -4 12 15 16 15 20
3 6 -16 -26 -32 -43 -21 -5 3 -10 1 -10 -4 0 -14 26 -14 52 0 11 6 22 8 25 5
7 -6 -216 -153 -351 -230 -118 -68 -350 -185 -459 -232 l-78 -34 -72 31 c-207
87 -665 343 -660 367 2 6 -3 9 -10 6 -7 -2 -21 3 -32 12 -18 14 -18 15 -2 10
11 -4 16 -2 12 5 -4 6 -14 8 -22 5 -16 -6 -195 112 -188 124 2 4 -2 7 -9 7
-21 0 -136 94 -129 106 3 5 1 7 -5 3 -5 -3 -25 6 -42 21 -30 25 -31 27 -14 40
15 11 16 13 2 13 -9 0 -18 -6 -21 -12 -2 -8 -34 14 -80 55 -43 38 -74 74 -70
79 4 7 1 8 -7 3 -22 -14 -357 335 -343 358 3 7 2 9 -2 4 -5 -4 -21 5 -37 20
-30 29 -37 46 -14 37 8 -3 16 -1 19 3 3 5 -6 9 -20 9 -22 -1 -40 18 -110 109
-111 146 -236 333 -321 480 -107 186 -103 165 -30 165 l63 0 45 -82z m2191 46
c73 -21 134 -72 165 -138 31 -67 33 -172 4 -250 -28 -73 -97 -179 -112 -170
-7 4 -8 3 -4 -5 9 -15 -152 -183 -167 -174 -6 3 -7 1 -4 -4 8 -13 -90 -106
-103 -98 -6 4 -9 1 -8 -7 2 -7 -3 -12 -10 -10 -8 1 -11 -2 -8 -7 4 -5 2 -12
-4 -16 -31 -19 5 -25 165 -25 108 0 183 4 199 11 15 7 33 31 46 60 15 35 26
49 40 49 11 0 20 -3 20 -6 0 -28 -34 -184 -40 -184 -5 0 -6 -9 -3 -20 3 -11 2
-31 -1 -45 l-6 -25 -300 0 -300 0 0 38 c1 33 9 46 86 122 48 47 83 79 80 73
-11 -20 -1 -15 20 9 15 19 16 20 2 9 -10 -7 -18 -10 -18 -7 0 12 83 107 88
101 3 -3 11 0 19 6 9 9 13 8 13 0 0 -6 5 -11 11 -11 8 0 8 5 -1 15 -10 12 -16
13 -26 4 -26 -21 -14 0 38 68 28 37 67 102 86 143 59 126 55 278 -8 335 -15
14 -17 21 -9 32 8 8 8 13 1 13 -6 0 -12 -5 -14 -10 -2 -6 -19 -4 -45 6 -91 36
-190 -12 -247 -118 -20 -36 -38 -58 -48 -58 -44 0 2 141 67 206 93 92 211 123
336 88z m-611 -86 l0 -27 -575 0 c-495 0 -577 2 -582 14 -15 40 -17 40 581 40
l576 0 0 -27z m2098 22 c90 0 92 -1 92 -23 0 -23 -2 -24 -100 -24 -92 1 -100
2 -94 19 4 13 0 18 -15 18 -12 0 -21 -4 -21 -10 0 -5 7 -7 15 -4 11 5 13 2 9
-9 -5 -14 -59 -16 -465 -15 l-459 1 0 26 0 26 472 -3 c260 -1 515 -2 566 -2z"/>
<path d="M7665 7270 c-3 -5 -1 -10 4 -10 6 0 11 5 11 10 0 6 -2 10 -4 10 -3 0
-8 -4 -11 -10z"/>
<path d="M7810 6960 c-13 -8 -12 -10 3 -10 9 0 17 5 17 10 0 12 -1 12 -20 0z"/>
<path d="M7888 6783 c7 -3 16 -2 19 1 4 3 -2 6 -13 5 -11 0 -14 -3 -6 -6z"/>
<path d="M7900 6709 c0 -5 5 -7 10 -4 6 3 10 8 10 11 0 2 -4 4 -10 4 -5 0 -10
-5 -10 -11z"/>
<path d="M7925 6410 c-3 -5 -1 -10 4 -10 6 0 11 5 11 10 0 6 -2 10 -4 10 -3 0
-8 -4 -11 -10z"/>
<path d="M7940 6380 c-9 -6 -10 -10 -3 -10 6 0 15 5 18 10 8 12 4 12 -15 0z"/>
<path d="M7935 6321 c-3 -5 -2 -12 3 -15 5 -3 9 1 9 9 0 17 -3 19 -12 6z"/>
<path d="M8000 6145 c-11 -13 -10 -14 4 -9 9 3 16 10 16 15 0 13 -6 11 -20 -6z"/>
<path d="M7950 5753 c0 -53 8 -55 12 -2 1 18 7 37 13 41 6 5 3 8 -7 8 -15 0
-18 -9 -18 -47z"/>
<path d="M8015 5730 c3 -5 8 -10 11 -10 2 0 4 5 4 10 0 6 -5 10 -11 10 -5 0
-7 -4 -4 -10z"/>
<path d="M8000 5700 c-9 -6 -10 -10 -3 -10 6 0 15 5 18 10 8 12 4 12 -15 0z"/>
<path d="M7950 5680 c0 -6 7 -10 15 -10 8 0 15 2 15 4 0 2 -7 6 -15 10 -8 3
-15 1 -15 -4z"/>
<path d="M7933 5535 c0 -8 4 -12 9 -9 5 3 6 10 3 15 -9 13 -12 11 -12 -6z"/>
<path d="M7955 5430 c-3 -6 1 -7 9 -4 18 7 21 14 7 14 -6 0 -13 -4 -16 -10z"/>
<path d="M7915 5420 c-3 -6 1 -7 9 -4 18 7 21 14 7 14 -6 0 -13 -4 -16 -10z"/>
<path d="M7890 5273 c0 -19 14 -22 35 -7 10 8 14 14 8 14 -7 0 -15 -5 -19 -11
-4 -8 -9 -7 -15 2 -6 10 -9 10 -9 2z"/>
<path d="M7873 5215 c-9 -24 1 -27 15 -5 8 13 8 20 2 20 -6 0 -13 -7 -17 -15z"/>
<path d="M7860 5159 c0 -5 5 -7 10 -4 6 3 10 8 10 11 0 2 -4 4 -10 4 -5 0 -10
-5 -10 -11z"/>
<path d="M7851 5124 c0 -11 3 -14 6 -6 3 7 2 16 -1 19 -3 4 -6 -2 -5 -13z"/>
<path d="M6156 6513 c-6 -14 -5 -15 5 -6 7 7 10 15 7 18 -3 3 -9 -2 -12 -12z"/>
<path d="M5160 7926 l0 -133 58 -8 c112 -14 98 -24 142 110 22 66 40 121 40
122 0 3 -146 32 -192 37 l-48 6 0 -134z"/>
<path d="M4935 8040 c-22 -5 -52 -13 -66 -18 l-26 -10 33 -118 c19 -64 36
-119 38 -121 3 -4 72 7 154 23 22 4 23 7 20 127 l-3 122 -55 2 c-30 1 -73 -2
-95 -7z"/>
<path d="M4688 7950 c-84 -42 -168 -96 -168 -109 0 -4 38 -48 84 -98 l84 -91
28 20 c16 10 50 30 76 43 l46 24 -25 92 c-13 50 -30 106 -36 124 l-12 34 -77
-39z"/>
<path d="M5434 7868 l-40 -123 55 -29 c31 -16 68 -37 82 -47 l27 -19 86 93 86
92 -36 32 c-29 26 -200 123 -216 123 -3 0 -23 -55 -44 -122z"/>
<path d="M4412 7744 c-48 -53 -122 -161 -122 -176 0 -5 51 -33 112 -62 l113
-53 32 46 c18 25 44 60 57 76 l24 30 -87 94 -87 94 -42 -49z"/>
<path d="M5700 7695 c-65 -65 -82 -89 -75 -99 49 -69 101 -135 108 -136 4 0
57 25 118 55 75 38 108 59 103 68 -35 57 -150 197 -163 197 -3 0 -45 -38 -91
-85z"/>
<path d="M4982 7705 c-210 -46 -381 -201 -454 -414 -19 -56 -23 -86 -23 -196
1 -121 3 -136 32 -211 108 -284 382 -453 670 -413 148 20 272 86 378 201 179
193 214 467 93 716 -48 97 -168 215 -269 264 -132 64 -288 83 -427 53z m197
-221 c26 -33 26 -54 1 -87 -16 -20 -20 -40 -20 -99 0 -71 1 -75 31 -97 16 -12
35 -33 41 -47 10 -22 17 -24 81 -24 54 0 74 4 94 20 29 23 54 25 86 9 29 -16
37 -28 37 -60 0 -65 -75 -96 -123 -51 -19 18 -35 22 -95 22 -64 0 -72 -2 -83
-22 -6 -13 -24 -34 -40 -48 -25 -23 -28 -32 -30 -96 -2 -52 2 -77 15 -96 23
-36 17 -77 -15 -101 -38 -27 -86 -16 -104 25 -15 36 -10 60 16 84 15 14 19 31
19 86 l0 69 -51 50 -50 49 -72 0 c-47 -1 -79 -6 -91 -15 -50 -38 -119 -5 -119
57 0 60 76 90 121 48 17 -16 35 -20 93 -20 72 0 72 0 106 40 19 22 41 40 49
40 11 0 14 17 14 78 0 66 -3 82 -20 97 -24 22 -26 72 -3 97 26 29 87 24 112
-8z"/>
<path d="M5077 7142 c-22 -25 -21 -55 2 -76 27 -25 72 -17 90 15 13 24 13 29
-2 53 -21 31 -66 35 -90 8z"/>
<path d="M5873 7443 l-111 -55 15 -42 c8 -22 20 -63 27 -91 l12 -50 124 4 c69
2 127 5 129 7 11 10 -61 269 -77 278 -4 2 -57 -21 -119 -51z"/>
<path d="M4216 7413 c-23 -70 -50 -193 -43 -198 1 -2 59 -6 128 -9 l125 -7 21
78 c12 43 24 85 27 93 5 12 -21 28 -106 68 -62 29 -116 52 -120 52 -3 0 -18
-35 -32 -77z"/>
<path d="M4173 7043 c7 -109 22 -173 40 -173 7 0 61 16 120 36 98 33 108 38
103 58 -2 11 -8 54 -12 94 l-7 72 -81 1 c-44 0 -101 3 -125 5 l-44 5 6 -98z"/>
<path d="M5899 7133 l-75 -4 -2 -62 c-1 -34 -4 -78 -7 -97 l-6 -35 117 -39
c64 -21 119 -34 124 -30 11 13 30 145 30 213 l0 61 -52 -2 c-29 -1 -87 -4
-129 -5z"/>
<path d="M5750 6783 c-19 -43 -35 -80 -35 -84 0 -4 45 -39 99 -79 94 -68 101
-71 114 -54 27 35 103 207 95 214 -10 9 -215 80 -228 80 -5 0 -26 -35 -45 -77z"/>
<path d="M5625 6600 c-22 -22 -56 -52 -77 -66 l-37 -26 77 -104 c42 -57 80
-103 83 -104 11 0 145 118 171 153 l27 35 -72 53 c-39 28 -86 63 -103 75 l-30
24 -39 -40z"/>
<path d="M5390 6444 c-30 -13 -63 -24 -72 -24 -9 0 -20 -4 -23 -10 -7 -11 43
-230 56 -244 5 -6 25 -4 51 3 49 15 198 81 198 89 0 2 -30 45 -66 95 -36 49
-68 96 -71 103 -6 17 -5 17 -73 -12z"/>
<path d="M3741 6625 c-166 -30 -282 -84 -328 -154 -28 -42 -29 -76 -3 -118 93
-153 502 -219 840 -136 136 33 253 107 262 165 23 146 -230 259 -572 257 -69
0 -159 -7 -199 -14z m379 -56 c87 -14 154 -44 191 -86 37 -43 34 -71 -14 -121
-75 -77 -303 -113 -497 -78 -91 17 -139 37 -184 76 -42 37 -51 71 -31 110 49
94 291 139 535 99z"/>
<path d="M3377 6218 c8 -63 13 -78 44 -113 36 -41 115 -88 195 -115 31 -11 59
-20 61 -20 2 0 3 34 1 76 l-3 76 -75 22 c-76 22 -143 53 -192 87 -34 25 -35
24 -31 -13z"/>
<path d="M3938 6103 l-178 -3 0 -75 0 -74 47 -7 c63 -9 258 -10 306 0 l37 7 0
79 c0 70 -2 80 -17 78 -10 -1 -98 -4 -195 -5z"/>
<path d="M3370 6000 c0 -122 76 -202 249 -261 30 -11 56 -19 58 -19 1 0 3 38
3 84 l0 84 -47 11 c-61 16 -187 74 -230 107 l-33 25 0 -31z"/>
<path d="M3374 5739 c12 -79 25 -113 55 -150 33 -39 152 -103 214 -114 l37 -7
0 84 0 85 -62 18 c-74 22 -169 67 -217 103 l-34 25 7 -44z"/>
<path d="M4752 6043 c-19 -4 -23 -9 -17 -26 17 -57 17 -67 1 -67 -10 0 -40
-10 -68 -22 l-51 -22 -34 38 -34 37 -44 -25 c-24 -14 -57 -38 -74 -52 -38 -32
-94 -111 -84 -117 5 -3 36 -13 70 -22 59 -17 61 -18 52 -42 -5 -13 -9 -37 -9
-53 0 -28 -1 -28 -75 -35 -60 -6 -75 -11 -75 -24 1 -33 49 -133 90 -186 l42
-55 48 35 c26 19 52 35 57 35 6 0 27 -13 47 -29 21 -16 42 -32 49 -34 7 -2 -3
-20 -25 -45 -21 -23 -38 -46 -38 -51 0 -21 225 -100 287 -101 19 0 22 7 28 53
l7 52 83 1 84 1 6 -46 c10 -71 8 -69 65 -60 66 10 113 26 170 55 81 42 81 40
26 88 l-49 43 43 39 c23 22 46 40 50 42 5 2 31 -9 60 -23 28 -14 55 -23 60
-20 17 11 50 117 50 163 0 88 -4 92 -76 92 -60 0 -65 2 -74 26 -6 15 -19 39
-30 54 l-19 27 49 23 c28 13 50 27 50 31 0 15 -105 99 -162 129 l-59 32 -22
-28 c-12 -15 -24 -31 -28 -36 -3 -4 -31 1 -63 12 -31 11 -76 23 -100 26 l-43
6 8 37 c5 20 9 39 9 44 0 7 -198 8 -238 0z m274 -174 c65 -13 161 -58 208 -99
198 -174 52 -399 -259 -400 -179 0 -345 83 -406 202 -31 61 -23 144 18 195 78
98 250 138 439 102z"/>
<path d="M2253 4422 c-24 -75 -45 -151 -49 -167 l-6 -30 109 2 c59 1 109 2
110 2 4 3 -107 326 -114 328 -4 2 -27 -59 -50 -135z"/>
<path d="M8468 4743 c7 -3 16 -2 19 1 4 3 -2 6 -13 5 -11 0 -14 -3 -6 -6z"/>
<path d="M8603 4743 c9 -2 23 -2 30 0 6 3 -1 5 -18 5 -16 0 -22 -2 -12 -5z"/>
<path d="M8385 4709 c-22 -11 -32 -17 -22 -14 10 3 27 5 37 5 10 0 20 7 24 15
3 8 4 15 3 14 -1 0 -20 -9 -42 -20z"/>
<path d="M8640 4720 c0 -5 5 -10 10 -10 6 0 10 5 10 10 0 6 -4 10 -10 10 -5 0
-10 -4 -10 -10z"/>
<path d="M8690 4721 c0 -6 4 -13 10 -16 6 -3 7 1 4 9 -7 18 -14 21 -14 7z"/>
<path d="M8476 4699 c-52 -12 -93 -44 -125 -94 -16 -25 -32 -40 -41 -38 -11 4
-12 2 -2 -4 10 -8 10 -20 -2 -64 -22 -80 -15 -274 13 -360 40 -126 121 -197
236 -206 77 -7 125 8 177 55 78 70 103 159 95 331 -5 119 -25 196 -67 268 -13
22 -15 33 -7 33 13 0 -28 24 -101 60 -50 25 -122 33 -176 19z"/>
<path d="M8735 4699 c-11 -16 -1 -19 13 -3 7 8 8 14 3 14 -5 0 -13 -5 -16 -11z"/>
<path d="M8743 4676 c-13 -6 -23 -14 -23 -18 0 -14 17 -8 35 12 20 22 20 22
-12 6z"/>
<path d="M8360 4660 c-9 -6 -10 -10 -3 -10 6 0 15 5 18 10 8 12 4 12 -15 0z"/>
<path d="M8279 4643 c-13 -16 -12 -17 4 -4 16 13 21 21 13 21 -2 0 -10 -8 -17
-17z"/>
<path d="M8765 4640 c3 -5 8 -10 11 -10 2 0 4 5 4 10 0 6 -5 10 -11 10 -5 0
-7 -4 -4 -10z"/>
<path d="M8797 4636 c-4 -10 -1 -13 9 -9 15 6 19 23 5 23 -5 0 -11 -7 -14 -14z"/>
<path d="M8830 4641 c0 -10 19 -25 25 -20 1 2 -3 10 -11 17 -8 7 -14 8 -14 3z"/>
<path d="M8275 4610 c-3 -5 1 -10 10 -10 9 0 13 5 10 10 -3 6 -8 10 -10 10 -2
0 -7 -4 -10 -10z"/>
<path d="M8810 4590 c0 -5 7 -7 15 -4 8 4 15 8 15 10 0 2 -7 4 -15 4 -8 0 -15
-4 -15 -10z"/>
<path d="M8855 4590 c3 -5 8 -10 11 -10 2 0 4 5 4 10 0 6 -5 10 -11 10 -5 0
-7 -4 -4 -10z"/>
<path d="M8266 4575 c-11 -8 -15 -15 -9 -15 6 0 16 7 23 15 16 19 11 19 -14 0z"/>
<path d="M8894 4535 c-9 -21 -2 -26 13 -10 8 9 9 16 3 20 -6 3 -13 -1 -16 -10z"/>
<path d="M8238 4533 c7 -3 16 -2 19 1 4 3 -2 6 -13 5 -11 0 -14 -3 -6 -6z"/>
<path d="M8186 4513 c-6 -14 -5 -15 5 -6 7 7 10 15 7 18 -3 3 -9 -2 -12 -12z"/>
<path d="M8235 4500 c3 -5 8 -10 11 -10 2 0 4 5 4 10 0 6 -5 10 -11 10 -5 0
-7 -4 -4 -10z"/>
<path d="M8906 4502 c-2 -4 4 -8 14 -8 10 0 16 4 14 8 -3 4 -9 8 -14 8 -5 0
-11 -4 -14 -8z"/>
<path d="M8273 4480 c1 -11 5 -20 9 -20 11 0 10 28 -1 35 -6 3 -9 -4 -8 -15z"/>
<path d="M8824 4476 c2 -15 6 -29 9 -32 3 -4 5 6 3 20 -1 14 -5 29 -9 32 -3 3
-4 -6 -3 -20z"/>
<path d="M8246 4465 c-9 -26 -7 -32 5 -12 6 10 9 21 6 23 -2 3 -7 -2 -11 -11z"/>
<path d="M8896 4472 c-2 -4 4 -8 14 -8 10 0 16 4 14 8 -3 4 -9 8 -14 8 -5 0
-11 -4 -14 -8z"/>
<path d="M8858 4453 c7 -3 16 -2 19 1 4 3 -2 6 -13 5 -11 0 -14 -3 -6 -6z"/>
<path d="M8176 4427 c-16 -12 -16 -13 2 -13 10 0 19 6 19 13 0 7 -1 13 -2 13
-1 0 -9 -6 -19 -13z"/>
<path d="M8940 4430 c0 -5 5 -10 11 -10 5 0 7 5 4 10 -3 6 -8 10 -11 10 -2 0
-4 -4 -4 -10z"/>
<path d="M8245 4419 c-4 -5 -11 -7 -16 -4 -15 10 -10 -2 8 -16 9 -8 14 -9 10
-2 -5 7 1 13 15 15 19 3 20 4 6 10 -10 4 -20 3 -23 -3z"/>
<path d="M8890 4401 c0 -6 4 -13 10 -16 6 -3 7 1 4 9 -7 18 -14 21 -14 7z"/>
<path d="M8925 4400 c4 -6 1 -17 -5 -25 -9 -11 -9 -15 -1 -15 6 0 11 5 11 10
0 6 7 10 16 10 14 0 14 2 0 15 -17 17 -30 20 -21 5z"/>
<path d="M8153 4355 c0 -21 2 -23 14 -14 8 7 10 15 6 18 -4 4 -11 10 -14 14
-4 4 -6 -4 -6 -18z"/>
<path d="M8266 4365 c4 -8 8 -15 10 -15 2 0 4 7 4 15 0 8 -4 15 -10 15 -5 0
-7 -7 -4 -15z"/>
<path d="M8210 4345 c-11 -13 -10 -14 4 -9 9 3 16 10 16 15 0 13 -6 11 -20 -6z"/>
<path d="M8851 4301 c-8 -14 -7 -20 3 -24 9 -4 12 0 9 13 -3 12 2 20 14 23 16
4 16 5 1 6 -10 0 -22 -8 -27 -18z"/>
<path d="M8151 4294 c0 -11 3 -14 6 -6 3 7 2 16 -1 19 -3 4 -6 -2 -5 -13z"/>
<path d="M8211 4294 c-7 -8 -11 -17 -9 -20 3 -2 13 5 23 16 10 11 14 20 9 20
-5 -1 -15 -8 -23 -16z"/>
<path d="M8913 4300 c-28 -11 -29 -16 -3 -16 11 0 22 6 24 13 3 7 4 13 3 12
-1 0 -12 -4 -24 -9z"/>
<path d="M8955 4290 c3 -5 8 -10 11 -10 2 0 4 5 4 10 0 6 -5 10 -11 10 -5 0
-7 -4 -4 -10z"/>
<path d="M8163 4273 c-15 -5 -17 -23 -4 -23 5 0 11 7 15 15 3 8 4 15 3 14 -1
0 -8 -3 -14 -6z"/>
<path d="M8904 4263 c4 -4 15 -8 24 -8 10 0 16 -6 14 -15 -2 -8 0 -11 4 -7 18
18 10 33 -19 35 -17 2 -27 -1 -23 -5z"/>
<path d="M8186 4248 c3 -5 10 -6 15 -3 13 9 11 12 -6 12 -8 0 -12 -4 -9 -9z"/>
<path d="M8849 4243 c0 -10 -2 -27 -3 -39 -1 -11 3 -21 10 -21 7 0 10 5 7 11
-4 6 -6 23 -5 38 1 15 0 28 -3 28 -3 0 -5 -8 -6 -17z"/>
<path d="M8229 4233 c-13 -16 -12 -17 4 -4 16 13 21 21 13 21 -2 0 -10 -8 -17
-17z"/>
<path d="M8275 4220 c3 -5 8 -10 11 -10 2 0 4 5 4 10 0 6 -5 10 -11 10 -5 0
-7 -4 -4 -10z"/>
<path d="M8900 4220 c18 -12 30 -13 30 -2 0 4 -10 9 -22 9 -18 2 -20 0 -8 -7z"/>
<path d="M8870 4210 c0 -5 5 -10 11 -10 5 0 7 5 4 10 -3 6 -8 10 -11 10 -2 0
-4 -4 -4 -10z"/>
<path d="M8945 4209 c-4 -6 -5 -12 -2 -15 2 -3 7 2 10 11 7 17 1 20 -8 4z"/>
<path d="M8168 4188 c5 -21 17 -23 28 -6 5 7 3 8 -6 3 -9 -6 -12 -4 -8 7 4 8
1 15 -7 15 -7 0 -10 -8 -7 -19z"/>
<path d="M8231 4202 c0 -7 -5 -10 -11 -7 -5 3 -10 4 -10 1 0 -3 9 -10 19 -16
14 -7 22 -7 27 2 4 6 3 8 -4 4 -6 -3 -13 2 -15 11 -3 10 -5 12 -6 5z"/>
<path d="M8276 4185 c-3 -8 -1 -15 4 -15 6 0 10 7 10 15 0 8 -2 15 -4 15 -2 0
-6 -7 -10 -15z"/>
<path d="M8903 4185 c-15 -16 -16 -25 -5 -25 4 0 13 9 20 20 14 23 3 26 -15 5z"/>
<path d="M8836 4155 c-9 -26 -7 -32 5 -12 6 10 9 21 6 23 -2 3 -7 -2 -11 -11z"/>
<path d="M8860 4159 c0 -5 5 -7 10 -4 6 3 10 8 10 11 0 2 -4 4 -10 4 -5 0 -10
-5 -10 -11z"/>
<path d="M8175 4150 c3 -5 8 -10 11 -10 2 0 4 5 4 10 0 6 -5 10 -11 10 -5 0
-7 -4 -4 -10z"/>
<path d="M8275 4150 c3 -5 11 -10 16 -10 6 0 7 5 4 10 -3 6 -11 10 -16 10 -6
0 -7 -4 -4 -10z"/>
<path d="M8896 4135 c10 -7 24 -11 31 -8 23 9 14 20 -18 21 -28 1 -29 -1 -13
-13z"/>
<path d="M8832 4100 c-12 -16 -22 -35 -22 -42 0 -10 2 -10 9 1 5 7 13 11 19 7
5 -3 9 0 8 7 -1 13 6 17 32 17 15 -1 15 -2 -2 -15 -11 -8 -16 -15 -10 -15 15
0 30 14 37 32 4 12 2 15 -9 11 -7 -3 -22 -2 -31 1 -15 6 -15 8 -3 16 8 6 10
10 4 10 -5 0 -20 -13 -32 -30z"/>
<path d="M8270 4099 c0 -11 27 -12 34 -1 2 4 -4 9 -15 9 -10 1 -19 -2 -19 -8z"/>
<path d="M8200 4092 c0 -7 5 -12 11 -12 5 0 7 -6 3 -12 -4 -7 2 -4 14 6 23 20
31 36 9 17 -10 -8 -17 -7 -25 1 -9 9 -12 9 -12 0z"/>
<path d="M8302 4058 c13 -20 55 -37 42 -17 -3 5 -10 7 -15 4 -8 -6 -13 8 -10
28 0 4 -6 7 -15 7 -15 0 -15 -2 -2 -22z"/>
<path d="M8231 4051 c-7 -5 -9 -11 -5 -14 5 -3 15 1 22 9 14 16 5 18 -17 5z"/>
<path d="M8859 4043 c0 -5 -2 -16 -4 -26 -2 -9 1 -15 6 -11 5 3 9 11 9 19 0 7
6 16 13 18 7 3 5 6 -5 6 -10 1 -18 -2 -19 -6z"/>
<path d="M8251 4024 c0 -11 3 -14 6 -6 3 7 2 16 -1 19 -3 4 -6 -2 -5 -13z"/>
<path d="M8798 4021 c3 -8 1 -12 -5 -8 -5 3 -25 -9 -43 -28 -18 -18 -46 -39
-62 -46 -16 -6 -27 -14 -24 -16 2 -3 14 1 27 7 19 11 21 10 15 -5 -5 -13 -2
-16 10 -11 8 3 20 6 25 6 5 0 9 7 9 15 0 8 -5 15 -12 15 -6 0 -3 9 7 20 13 15
21 17 31 9 10 -8 11 -5 7 12 -4 14 -2 20 4 16 6 -4 18 2 28 13 16 18 16 19 -3
17 -13 -1 -18 -6 -14 -16z"/>
<path d="M8300 4016 c0 -2 9 -6 20 -9 11 -3 18 -1 14 4 -5 9 -34 13 -34 5z"/>
<path d="M8286 3992 c-3 -4 4 -9 15 -9 23 -2 25 3 4 10 -8 4 -16 3 -19 -1z"/>
<path d="M8365 3980 c-3 -5 -2 -10 4 -10 5 0 13 5 16 10 3 6 2 10 -4 10 -5 0
-13 -4 -16 -10z"/>
<path d="M8384 3948 c-3 -5 -10 -5 -16 -2 -7 4 -8 2 -4 -5 5 -8 12 -9 19 -2 8
6 16 4 25 -5 7 -8 9 -14 5 -14 -12 0 20 -20 32 -20 6 0 3 5 -5 10 -13 9 -13
10 0 10 8 1 5 5 -8 11 -13 5 -21 13 -18 17 3 5 -2 9 -10 9 -8 0 -17 -4 -20 -9z"/>
<path d="M8486 3918 c5 -8 2 -9 -9 -5 -10 3 -17 2 -17 -3 0 -11 11 -13 34 -4
16 6 12 24 -5 24 -6 0 -7 -5 -3 -12z"/>
<path d="M8551 3909 c-62 -12 -64 -20 -5 -18 35 1 51 6 51 16 0 7 -1 13 -1 12
-1 -1 -21 -5 -45 -10z"/>
<path d="M8628 3893 c7 -3 16 -2 19 1 4 3 -2 6 -13 5 -11 0 -14 -3 -6 -6z"/>
<path d="M3510 3960 c0 -5 5 -10 10 -10 6 0 10 5 10 10 0 6 -4 10 -10 10 -5 0
-10 -4 -10 -10z"/>
<path d="M3615 3960 c-3 -6 1 -7 9 -4 18 7 21 14 7 14 -6 0 -13 -4 -16 -10z"/>
<path d="M4050 4683 c-27 -11 -30 -26 -30 -175 l0 -148 58 1 c125 1 166 38
166 152 1 91 -19 131 -77 158 -41 18 -87 23 -117 12z"/>
<path d="M4048 4303 l-28 -4 0 -159 c0 -192 -1 -190 104 -190 60 0 79 4 107
23 44 30 62 82 56 164 -8 110 -56 163 -153 168 -32 2 -71 1 -86 -2z"/>
<path d="M4670 4630 c0 -5 5 -10 10 -10 6 0 10 5 10 10 0 6 -4 10 -10 10 -5 0
-10 -4 -10 -10z"/>
<path d="M5048 3993 c7 -3 16 -2 19 1 4 3 -2 6 -13 5 -11 0 -14 -3 -6 -6z"/>
<path d="M5015 3970 c-3 -6 1 -7 9 -4 18 7 21 14 7 14 -6 0 -13 -4 -16 -10z"/>
<path d="M5045 3951 c-3 -5 -2 -12 3 -15 5 -3 9 1 9 9 0 17 -3 19 -12 6z"/>
<path d="M5010 3940 c-9 -6 -10 -10 -3 -10 6 0 15 5 18 10 8 12 4 12 -15 0z"/>
<path d="M4676 3923 c-6 -14 -5 -15 5 -6 7 7 10 15 7 18 -3 3 -9 -2 -12 -12z"/>
<path d="M4555 3920 c-16 -7 -17 -9 -3 -9 9 -1 20 4 23 9 7 11 7 11 -20 0z"/>
<path d="M5005 3910 c-3 -6 1 -7 9 -4 18 7 21 14 7 14 -6 0 -13 -4 -16 -10z"/>
<path d="M5619 4363 c-13 -16 -12 -17 4 -4 16 13 21 21 13 21 -2 0 -10 -8 -17
-17z"/>
<path d="M5666 4357 c3 -10 9 -15 12 -12 3 3 0 11 -7 18 -10 9 -11 8 -5 -6z"/>
<path d="M5320 4040 c-9 -6 -10 -10 -3 -10 6 0 15 5 18 10 8 12 4 12 -15 0z"/>
<path d="M5736 4002 c-3 -5 1 -9 9 -9 8 0 12 4 9 9 -3 4 -7 8 -9 8 -2 0 -6 -4
-9 -8z"/>
<path d="M5305 3990 c-3 -5 -1 -10 4 -10 6 0 11 5 11 10 0 6 -2 10 -4 10 -3 0
-8 -4 -11 -10z"/>
<path d="M5695 3970 c-3 -5 -2 -10 4 -10 5 0 13 5 16 10 3 6 2 10 -4 10 -5 0
-13 -4 -16 -10z"/>
<path d="M5725 3949 c-4 -6 -5 -12 -2 -15 2 -3 7 2 10 11 7 17 1 20 -8 4z"/>
<path d="M5558 3933 c7 -3 16 -2 19 1 4 3 -2 6 -13 5 -11 0 -14 -3 -6 -6z"/>
<path d="M5238 3913 c7 -3 16 -2 19 1 4 3 -2 6 -13 5 -11 0 -14 -3 -6 -6z"/>
<path d="M6165 4677 c-19 -14 -20 -27 -20 -189 l0 -173 60 -3 c117 -5 170 54
170 188 0 86 -20 132 -71 162 -44 26 -114 33 -139 15z"/>
<path d="M6415 4670 c-3 -5 -1 -10 4 -10 6 0 11 5 11 10 0 6 -2 10 -4 10 -3 0
-8 -4 -11 -10z"/>
<path d="M6116 4463 c-6 -14 -5 -15 5 -6 7 7 10 15 7 18 -3 3 -9 -2 -12 -12z"/>
<path d="M6436 4465 c4 -8 8 -15 10 -15 2 0 4 7 4 15 0 8 -4 15 -10 15 -5 0
-7 -7 -4 -15z"/>
<path d="M6487 4459 c7 -7 15 -10 18 -7 3 3 -2 9 -12 12 -14 6 -15 5 -6 -5z"/>
<path d="M6390 4431 c0 -10 19 -25 25 -20 1 2 -3 10 -11 17 -8 7 -14 8 -14 3z"/>
<path d="M6106 4352 c-3 -5 1 -9 9 -9 8 0 15 4 15 9 0 4 -4 8 -9 8 -6 0 -12
-4 -15 -8z"/>
<path d="M6272 4301 c-11 -7 -10 -9 3 -14 9 -4 14 -3 10 2 -3 5 1 12 7 14 7 3
9 6 3 6 -5 0 -16 -3 -23 -8z"/>
<path d="M6020 4269 c0 -5 5 -7 10 -4 6 3 10 8 10 11 0 2 -4 4 -10 4 -5 0 -10
-5 -10 -11z"/>
<path d="M6285 4260 c-3 -6 1 -7 9 -4 18 7 21 14 7 14 -6 0 -13 -4 -16 -10z"/>
<path d="M6330 4209 c0 -5 5 -7 10 -4 6 3 10 8 10 11 0 2 -4 4 -10 4 -5 0 -10
-5 -10 -11z"/>
<path d="M6043 4143 c1 -17 4 -19 14 -11 15 12 18 22 4 14 -5 -4 -11 0 -14 6
-3 7 -4 3 -4 -9z"/>
<path d="M6105 4130 c3 -5 8 -10 11 -10 2 0 4 5 4 10 0 6 -5 10 -11 10 -5 0
-7 -4 -4 -10z"/>
<path d="M6408 4073 c-9 -2 -19 -11 -22 -19 -4 -11 0 -11 22 3 15 9 29 18 31
20 5 4 -9 2 -31 -4z"/>
<path d="M6020 4051 c0 -6 4 -13 10 -16 6 -3 7 1 4 9 -7 18 -14 21 -14 7z"/>
<path d="M6426 4051 c-3 -4 6 -8 20 -9 13 -1 24 0 24 2 0 7 -40 14 -44 7z"/>
<path d="M6480 4030 c-9 -6 -10 -10 -3 -10 6 0 15 5 18 10 8 12 4 12 -15 0z"/>
<path d="M6390 4020 c-8 -5 -10 -10 -5 -10 6 0 17 5 25 10 8 5 11 10 5 10 -5
0 -17 -5 -25 -10z"/>
<path d="M6016 3966 c3 -9 13 -16 22 -16 8 0 13 1 11 3 -2 1 -12 9 -22 16 -15
12 -17 12 -11 -3z"/>
<path d="M6536 3953 c-6 -14 -5 -15 5 -6 7 7 10 15 7 18 -3 3 -9 -2 -12 -12z"/>
<path d="M5979 3932 c-13 -15 -17 -21 -10 -15 10 9 18 9 27 2 8 -7 14 -7 19 1
3 5 -2 10 -12 10 -15 0 -16 2 -3 10 8 5 12 11 9 14 -3 3 -16 -6 -30 -22z"/>
<path d="M6127 3953 c-4 -3 -7 -11 -7 -17 0 -6 5 -5 12 2 6 6 9 14 7 17 -3 3
-9 2 -12 -2z"/>
<path d="M6548 3903 c7 -3 16 -2 19 1 4 3 -2 6 -13 5 -11 0 -14 -3 -6 -6z"/>
<path d="M7020 4706 c0 -2 7 -6 15 -10 8 -3 15 -1 15 4 0 6 -7 10 -15 10 -8 0
-15 -2 -15 -4z"/>
<path d="M6923 4679 c-10 -10 -13 -64 -13 -200 0 -210 -4 -199 78 -199 96 0
159 66 169 178 9 96 -24 174 -85 206 -41 21 -134 30 -149 15z"/>
<path d="M6800 4606 c0 -2 7 -7 16 -10 8 -3 12 -2 9 4 -6 10 -25 14 -25 6z"/>
<path d="M7196 4545 c-4 -13 -2 -14 14 -5 23 13 26 20 6 20 -8 0 -16 -7 -20
-15z"/>
<path d="M6793 4491 c0 -11 5 -18 9 -15 4 3 5 11 1 19 -7 21 -12 19 -10 -4z"/>
<path d="M7230 4464 c-17 -9 -20 -14 -9 -14 9 0 22 7 29 15 15 18 13 18 -20
-1z"/>
<path d="M7255 4451 c-3 -5 -2 -12 3 -15 5 -3 9 1 9 9 0 17 -3 19 -12 6z"/>
<path d="M7215 4430 c-3 -5 -1 -10 4 -10 6 0 11 5 11 10 0 6 -2 10 -4 10 -3 0
-8 -4 -11 -10z"/>
<path d="M6791 4414 c0 -11 3 -14 6 -6 3 7 2 16 -1 19 -3 4 -6 -2 -5 -13z"/>
<path d="M6868 4403 c7 -3 16 -2 19 1 4 3 -2 6 -13 5 -11 0 -14 -3 -6 -6z"/>
<path d="M7155 4369 c-9 -14 -2 -20 14 -10 8 6 9 11 3 15 -6 3 -14 1 -17 -5z"/>
<path d="M7210 4370 c0 -5 5 -10 11 -10 5 0 7 5 4 10 -3 6 -8 10 -11 10 -2 0
-4 -4 -4 -10z"/>
<path d="M7240 4370 c0 -5 5 -10 11 -10 5 0 7 5 4 10 -3 6 -8 10 -11 10 -2 0
-4 -4 -4 -10z"/>
<path d="M7190 4336 c0 -2 7 -7 16 -10 8 -3 12 -2 9 4 -6 10 -25 14 -25 6z"/>
<path d="M6880 4295 c-7 -9 -11 -17 -9 -20 3 -2 10 5 17 15 14 24 10 26 -8 5z"/>
<path d="M7165 4288 l-20 -21 23 12 c12 6 22 16 22 21 0 13 -2 12 -25 -12z"/>
<path d="M7080 4280 c0 -5 7 -7 15 -4 8 4 15 8 15 10 0 2 -7 4 -15 4 -8 0 -15
-4 -15 -10z"/>
<path d="M7108 4268 c-10 -10 -14 -18 -9 -18 10 0 36 29 30 34 -2 1 -12 -6
-21 -16z"/>
<path d="M6979 4254 c12 -9 27 -13 34 -11 7 3 4 6 -6 6 -10 1 -16 5 -13 9 2 4
-5 9 -16 9 -21 2 -21 2 1 -13z"/>
<path d="M6798 4183 c7 -3 16 -2 19 1 4 3 -2 6 -13 5 -11 0 -14 -3 -6 -6z"/>
<path d="M6874 4135 c-3 -8 -3 -19 1 -25 4 -6 2 -17 -4 -24 -8 -9 -7 -13 2
-13 9 0 13 14 13 39 -1 41 -4 46 -12 23z"/>
<path d="M6792 4055 c3 -28 11 -24 13 5 1 11 -2 20 -7 20 -4 0 -7 -11 -6 -25z"/>
<path d="M6865 4039 c-11 -16 -1 -19 13 -3 7 8 8 14 3 14 -5 0 -13 -5 -16 -11z"/>
<path d="M6873 3993 c-7 -3 -13 -9 -13 -15 0 -7 5 -6 14 1 11 9 15 9 19 -1 4
-9 6 -9 6 -1 1 15 -10 22 -26 16z"/>
<path d="M6745 3930 c-16 -11 -24 -20 -17 -20 7 0 22 9 34 20 28 25 21 25 -17
0z"/>
<path d="M6875 3931 c-3 -5 -2 -12 3 -15 5 -3 9 1 9 9 0 17 -3 19 -12 6z"/>
<path d="M6800 3910 c0 -5 5 -10 11 -10 5 0 7 5 4 10 -3 6 -8 10 -11 10 -2 0
-4 -4 -4 -10z"/>
<path d="M6960 3910 c-9 -6 -10 -10 -3 -10 6 0 15 5 18 10 8 12 4 12 -15 0z"/>
<path d="M7448 4723 c6 -2 18 -2 25 0 6 3 1 5 -13 5 -14 0 -19 -2 -12 -5z"/>
<path d="M7565 4720 c4 -6 11 -8 16 -5 14 9 11 15 -7 15 -8 0 -12 -5 -9 -10z"/>
<path d="M7680 4726 c0 -2 8 -10 17 -17 9 -8 14 -9 10 -2 -5 7 1 13 15 16 17
3 14 5 -9 6 -18 0 -33 -1 -33 -3z"/>
<path d="M7457 4699 c7 -7 15 -10 18 -7 3 3 -2 9 -12 12 -14 6 -15 5 -6 -5z"/>
<path d="M7756 4701 c-4 -5 3 -7 14 -4 23 6 26 13 6 13 -8 0 -17 -4 -20 -9z"/>
<path d="M7820 4700 c-9 -6 -10 -10 -3 -10 6 0 15 5 18 10 8 12 4 12 -15 0z"/>
<path d="M7600 4690 c-8 -5 -10 -10 -5 -10 6 0 17 5 25 10 8 5 11 10 5 10 -5
0 -17 -5 -25 -10z"/>
<path d="M7628 4678 c-15 -11 -17 -36 -19 -188 l-2 -175 76 0 c73 0 78 2 108
31 41 41 57 106 48 186 -8 66 -29 103 -76 130 -41 25 -113 33 -135 16z"/>
<path d="M7841 4674 c0 -11 3 -14 6 -6 3 7 2 16 -1 19 -3 4 -6 -2 -5 -13z"/>
<path d="M7517 4659 c7 -7 15 -10 18 -7 3 3 -2 9 -12 12 -14 6 -15 5 -6 -5z"/>
<path d="M7896 4635 c-3 -8 -1 -15 4 -15 6 0 10 7 10 15 0 8 -2 15 -4 15 -2 0
-6 -7 -10 -15z"/>
<path d="M7491 4594 c0 -11 3 -14 6 -6 3 7 2 16 -1 19 -3 4 -6 -2 -5 -13z"/>
<path d="M7971 4564 c0 -11 3 -14 6 -6 3 7 2 16 -1 19 -3 4 -6 -2 -5 -13z"/>
<path d="M7575 4560 c-3 -5 -1 -10 4 -10 6 0 11 5 11 10 0 6 -2 10 -4 10 -3 0
-8 -4 -11 -10z"/>
<path d="M7850 4561 c0 -6 4 -13 10 -16 6 -3 7 1 4 9 -7 18 -14 21 -14 7z"/>
<path d="M7503 4543 c-7 -2 -13 -9 -13 -14 0 -6 5 -7 10 -4 6 3 10 2 10 -4 0
-5 -6 -12 -12 -14 -8 -4 -9 -6 -2 -6 6 -1 17 6 24 14 9 11 9 15 1 15 -7 0 -9
5 -6 10 7 11 6 11 -12 3z"/>
<path d="M7970 4532 c0 -6 -8 -13 -17 -15 -16 -4 -16 -5 -1 -6 18 -1 34 16 24
26 -3 4 -6 1 -6 -5z"/>
<path d="M7548 4523 c6 -2 18 -2 25 0 6 3 1 5 -13 5 -14 0 -19 -2 -12 -5z"/>
<path d="M7865 4519 c-4 -6 -4 -13 -1 -16 3 -4 6 -1 6 6 0 7 5 9 10 6 6 -3 10
-1 10 4 0 14 -17 14 -25 0z"/>
<path d="M7533 4495 c0 -8 4 -15 9 -15 4 0 8 4 8 9 0 6 -4 12 -8 15 -5 3 -9
-1 -9 -9z"/>
<path d="M7950 4480 c0 -5 5 -10 11 -10 5 0 7 5 4 10 -3 6 -8 10 -11 10 -2 0
-4 -4 -4 -10z"/>
<path d="M7889 4463 c-13 -16 -12 -17 4 -4 9 7 17 15 17 17 0 8 -8 3 -21 -13z"/>
<path d="M7511 4444 c0 -11 3 -14 6 -6 3 7 2 16 -1 19 -3 4 -6 -2 -5 -13z"/>
<path d="M7858 4442 c-5 -18 -2 -22 15 -22 13 0 17 3 11 8 -6 4 -13 14 -16 22
-3 10 -6 8 -10 -8z"/>
<path d="M7843 4393 c-3 -10 -15 -28 -26 -40 -22 -25 -15 -32 9 -9 15 15 37
66 28 66 -2 0 -7 -8 -11 -17z"/>
<path d="M7550 4385 c0 -5 4 -16 9 -23 6 -11 10 -10 15 4 3 9 4 19 1 22 -3 3
-5 -1 -5 -9 0 -11 -2 -11 -10 1 -5 8 -10 11 -10 5z"/>
<path d="M7866 4377 c3 -10 9 -15 12 -12 3 3 0 11 -7 18 -10 9 -11 8 -5 -6z"/>
<path d="M7846 4343 c-6 -14 -5 -15 5 -6 7 7 10 15 7 18 -3 3 -9 -2 -12 -12z"/>
<path d="M7530 4329 c0 -5 5 -7 10 -4 6 3 10 8 10 11 0 2 -4 4 -10 4 -5 0 -10
-5 -10 -11z"/>
<path d="M7560 4306 c0 -13 -4 -15 -19 -6 -11 5 -22 6 -25 2 -3 -5 0 -9 7 -10
7 -1 25 -3 40 -6 25 -4 27 -2 15 12 -7 9 -14 19 -15 21 -2 2 -3 -3 -3 -13z"/>
<path d="M7800 4316 c0 -2 7 -7 16 -10 8 -3 12 -2 9 4 -6 10 -25 14 -25 6z"/>
<path d="M7597 4291 c3 -13 1 -21 -8 -21 -7 0 -10 -2 -7 -5 3 -3 14 -2 25 2
19 8 19 9 2 27 -17 18 -18 18 -12 -3z"/>
<path d="M7648 4273 c6 -2 18 -2 25 0 6 3 1 5 -13 5 -14 0 -19 -2 -12 -5z"/>
<path d="M7555 4261 c-3 -5 -2 -12 3 -15 5 -3 9 1 9 9 0 17 -3 19 -12 6z"/>
<path d="M7726 4247 c3 -10 9 -15 12 -12 3 3 0 11 -7 18 -10 9 -11 8 -5 -6z"/>
<path d="M7505 4220 c-16 -7 -17 -9 -3 -9 9 -1 20 4 23 9 7 11 7 11 -20 0z"/>
<path d="M7577 4209 c4 -13 8 -18 11 -10 2 7 -1 18 -6 23 -8 8 -9 4 -5 -13z"/>
<path d="M7845 4200 c3 -5 8 -10 11 -10 2 0 4 5 4 10 0 6 -5 10 -11 10 -5 0
-7 -4 -4 -10z"/>
<path d="M7750 4196 c0 -2 7 -7 16 -10 8 -3 12 -2 9 4 -6 10 -25 14 -25 6z"/>
<path d="M7808 4193 c7 -3 16 -2 19 1 4 3 -2 6 -13 5 -11 0 -14 -3 -6 -6z"/>
<path d="M7519 4153 c4 -16 15 -29 24 -29 13 -2 14 -1 2 3 -8 2 -15 13 -15 23
0 10 -4 21 -9 24 -5 4 -6 -5 -2 -21z"/>
<path d="M7782 4167 c-8 -10 -6 -16 9 -25 11 -7 19 -8 19 -2 0 5 -5 10 -11 10
-6 0 -9 7 -5 15 7 18 2 19 -12 2z"/>
<path d="M7840 4145 c-13 -15 24 -14 38 2 9 9 7 11 -9 10 -11 -1 -24 -6 -29
-12z"/>
<path d="M7491 4124 c0 -11 3 -14 6 -6 3 7 2 16 -1 19 -3 4 -6 -2 -5 -13z"/>
<path d="M7790 4111 c0 -6 4 -13 10 -16 6 -3 7 1 4 9 -7 18 -14 21 -14 7z"/>
<path d="M7872 4111 c-11 -7 -11 -9 2 -14 10 -4 16 -1 16 8 0 17 -1 17 -18 6z"/>
<path d="M7907 4103 c-4 -3 -7 -11 -7 -17 0 -6 5 -5 12 2 6 6 9 14 7 17 -3 3
-9 2 -12 -2z"/>
<path d="M7490 4068 c0 -4 4 -8 9 -8 6 0 12 4 15 8 3 5 -1 9 -9 9 -8 0 -15 -4
-15 -9z"/>
<path d="M7528 4061 c-7 -12 -18 -21 -25 -21 -7 0 -13 -8 -13 -17 0 -15 2 -15
9 -4 8 13 12 13 28 0 16 -13 17 -12 5 2 -10 14 -10 20 4 33 9 10 14 19 11 22
-3 3 -12 -3 -19 -15z"/>
<path d="M7871 4066 c-7 -9 -10 -16 -6 -16 4 0 2 -8 -6 -17 -7 -11 -3 -9 10 3
13 12 22 27 19 34 -3 9 -8 7 -17 -4z"/>
<path d="M7915 4071 c-3 -5 -1 -12 5 -16 6 -4 8 -11 5 -16 -4 -5 -1 -9 4 -9 6
0 11 7 11 15 0 8 -5 15 -11 15 -5 0 -7 5 -4 10 3 6 4 10 1 10 -3 0 -7 -4 -11
-9z"/>
<path d="M7555 4050 c-8 -13 5 -13 25 0 13 8 13 10 -2 10 -9 0 -20 -4 -23 -10z"/>
<path d="M7901 4034 c0 -11 3 -14 6 -6 3 7 2 16 -1 19 -3 4 -6 -2 -5 -13z"/>
<path d="M7876 4022 c-2 -4 -1 -14 3 -21 6 -9 11 -10 15 -2 4 6 2 11 -4 11 -6
0 -8 5 -5 10 3 6 4 10 1 10 -3 0 -7 -4 -10 -8z"/>
<path d="M7946 4005 c-9 -13 -16 -31 -16 -39 0 -8 -5 -17 -10 -19 -6 -3 -5 -4
2 -3 7 1 14 12 16 24 4 26 17 28 31 5 7 -14 5 -21 -12 -30 l-22 -12 23 2 c12
1 22 5 22 10 0 4 7 7 16 5 10 -2 19 2 21 9 3 7 -3 9 -18 6 -19 -5 -21 -3 -16
16 3 14 0 24 -9 28 -8 3 -11 9 -8 14 13 21 -5 7 -20 -16z"/>
<path d="M7917 4013 c-4 -3 -7 -11 -7 -17 0 -6 5 -5 12 2 6 6 9 14 7 17 -3 3
-9 2 -12 -2z"/>
<path d="M7537 3989 c7 -7 15 -10 18 -7 3 3 -2 9 -12 12 -14 6 -15 5 -6 -5z"/>
<path d="M7503 3953 c-10 -10 -14 -15 -8 -11 7 4 14 5 17 2 3 -2 8 2 11 11 8
19 4 19 -20 -2z"/>
<path d="M7545 3960 c-3 -5 -1 -10 4 -10 6 0 11 5 11 10 0 6 -2 10 -4 10 -3 0
-8 -4 -11 -10z"/>
<path d="M7597 3964 c-3 -5 1 -15 9 -22 16 -14 18 -5 5 17 -5 7 -11 9 -14 5z"/>
<path d="M7888 3963 c6 -2 18 -2 25 0 6 3 1 5 -13 5 -14 0 -19 -2 -12 -5z"/>
<path d="M7570 3951 c0 -6 4 -13 10 -16 6 -3 7 1 4 9 -7 18 -14 21 -14 7z"/>
<path d="M7426 3925 c-16 -7 -24 -15 -18 -19 6 -3 13 -2 17 4 4 6 10 8 15 5 5
-3 12 0 15 6 11 16 3 17 -29 4z"/>
<path d="M7525 3930 c-3 -5 -1 -10 4 -10 6 0 11 5 11 10 0 6 -2 10 -4 10 -3 0
-8 -4 -11 -10z"/>
<path d="M7550 3920 c0 -5 7 -10 16 -10 8 0 12 5 9 10 -3 6 -10 10 -16 10 -5
0 -9 -4 -9 -10z"/>
<path d="M7985 3920 c-18 -8 -17 -9 8 -9 15 -1 27 4 27 9 0 12 -8 12 -35 0z"/>
<path d="M7634 3909 c-3 -5 6 -8 20 -7 26 2 26 10 1 14 -8 1 -17 -2 -21 -7z"/>
<path d="M7288 3503 c6 -2 18 -2 25 0 6 3 1 5 -13 5 -14 0 -19 -2 -12 -5z"/>
<path d="M7357 3490 c-19 -22 -22 -35 -7 -25 10 6 34 45 28 45 -2 0 -11 -9
-21 -20z"/>
<path d="M7300 3480 c-8 -5 -11 -12 -8 -16 4 -3 14 1 23 10 18 17 9 21 -15 6z"/>
<path d="M7245 3430 c3 -5 8 -10 11 -10 2 0 4 5 4 10 0 6 -5 10 -11 10 -5 0
-7 -4 -4 -10z"/>
<path d="M7225 3410 c-3 -5 -1 -10 4 -10 6 0 11 5 11 10 0 6 -2 10 -4 10 -3 0
-8 -4 -11 -10z"/>
<path d="M7215 3382 c2 -2 -6 -13 -17 -24 -23 -23 -20 -29 9 -22 12 3 24 15
26 26 3 11 10 17 16 13 6 -3 11 -1 11 4 0 6 -11 10 -25 9 -13 -1 -22 -4 -20
-6z"/>
<path d="M7240 3351 c0 -6 5 -13 10 -16 6 -3 10 1 10 9 0 9 -4 16 -10 16 -5 0
-10 -4 -10 -9z"/>
<path d="M7226 3313 c-6 -14 -5 -15 5 -6 7 7 10 15 7 18 -3 3 -9 -2 -12 -12z"/>
<path d="M7157 3296 c-16 -23 -16 -26 -2 -26 9 0 14 4 11 9 -4 5 -1 11 5 13 7
2 10 10 8 17 -3 9 -11 5 -22 -13z"/>
<path d="M7190 3280 c0 -5 5 -10 10 -10 6 0 10 5 10 10 0 6 -4 10 -10 10 -5 0
-10 -4 -10 -10z"/>
<path d="M7117 3233 c-25 -32 -18 -38 10 -7 12 13 18 26 15 28 -4 2 -15 -7
-25 -21z"/>
<path d="M7168 3253 c7 -3 16 -2 19 1 4 3 -2 6 -13 5 -11 0 -14 -3 -6 -6z"/>
<path d="M7195 3240 c-3 -6 1 -7 9 -4 18 7 21 14 7 14 -6 0 -13 -4 -16 -10z"/>
<path d="M7136 3222 c-3 -5 1 -9 9 -9 8 0 12 4 9 9 -3 4 -7 8 -9 8 -2 0 -6 -4
-9 -8z"/>
<path d="M7070 3160 c-7 -12 -7 -21 0 -25 6 -3 10 4 11 17 0 13 3 17 6 11 5
-15 23 -17 23 -4 0 19 -30 20 -40 1z"/>
<path d="M7123 3130 c-1 -16 1 -17 12 -7 7 6 11 15 8 20 -8 13 -19 7 -20 -13z"/>
<path d="M7073 3120 c-13 -5 -23 -15 -23 -21 0 -9 3 -9 14 0 11 9 15 9 19 -1
4 -9 6 -7 6 4 1 9 7 19 14 21 6 3 8 5 2 6 -5 0 -20 -4 -32 -9z"/>
<path d="M6986 3045 c-15 -19 -24 -35 -21 -35 11 0 35 28 35 40 0 6 10 15 23
20 15 6 17 9 6 9 -9 1 -29 -15 -43 -34z"/>
<path d="M3225 3060 c3 -5 8 -10 11 -10 2 0 4 5 4 10 0 6 -5 10 -11 10 -5 0
-7 -4 -4 -10z"/>
<path d="M7055 3060 c-3 -6 1 -7 9 -4 18 7 21 14 7 14 -6 0 -13 -4 -16 -10z"/>
<path d="M7028 3023 c7 -3 16 -2 19 1 4 3 -2 6 -13 5 -11 0 -14 -3 -6 -6z"/>
<path d="M3216 2993 c-6 -14 -5 -15 5 -6 7 7 10 15 7 18 -3 3 -9 -2 -12 -12z"/>
<path d="M7020 2999 c0 -4 -8 -10 -17 -12 -14 -4 -15 -5 -2 -6 8 0 23 5 33 12
16 12 16 14 2 14 -9 0 -16 -4 -16 -8z"/>
<path d="M6924 2963 c-15 -20 -22 -33 -15 -28 9 5 12 3 9 -6 -3 -8 -11 -13
-18 -11 -12 3 -24 -9 -61 -63 -15 -21 -10 -19 16 10 35 38 82 56 94 36 4 -6
13 -1 20 12 13 20 13 21 -1 9 -13 -10 -19 -10 -32 3 -18 18 -12 40 7 29 7 -4
9 -4 5 1 -4 4 -3 16 3 26 16 30 4 22 -27 -18z"/>
<path d="M3313 2955 c0 -8 4 -12 9 -9 5 3 6 10 3 15 -9 13 -12 11 -12 -6z"/>
<path d="M6976 2955 c-3 -8 -1 -15 4 -15 13 0 22 18 11 24 -5 3 -11 -1 -15 -9z"/>
<path d="M6910 2880 c0 -5 5 -10 11 -10 5 0 7 5 4 10 -3 6 -8 10 -11 10 -2 0
-4 -4 -4 -10z"/>
<path d="M3390 2850 c-9 -6 -10 -10 -3 -10 6 0 15 5 18 10 8 12 4 12 -15 0z"/>
<path d="M3354 2831 c4 -5 1 -12 -4 -14 -6 -3 -5 -4 2 -3 15 3 23 26 8 26 -6
0 -9 -4 -6 -9z"/>
<path d="M3402 2755 c-7 -8 -9 -15 -4 -15 5 0 15 7 22 15 16 19 -1 19 -18 0z"/>
<path d="M6827 2739 c7 -7 15 -10 18 -7 3 3 -2 9 -12 12 -14 6 -15 5 -6 -5z"/>
<path d="M6745 2710 c-10 -11 -14 -20 -9 -20 5 0 17 9 27 20 9 11 13 20 8 20
-4 0 -16 -9 -26 -20z"/>
<path d="M6709 2703 c-13 -16 -12 -17 4 -4 9 7 17 15 17 17 0 8 -8 3 -21 -13z"/>
<path d="M6770 2702 c0 -4 9 -8 19 -8 11 0 17 4 15 8 -3 4 -12 8 -20 8 -8 0
-14 -4 -14 -8z"/>
<path d="M3447 2689 c7 -7 15 -10 18 -7 3 3 -2 9 -12 12 -14 6 -15 5 -6 -5z"/>
<path d="M3475 2669 c-4 -6 -5 -12 -2 -15 2 -3 7 2 10 11 7 17 1 20 -8 4z"/>
<path d="M6670 2665 c-7 -9 -8 -15 -2 -15 6 0 13 6 15 13 4 8 14 3 31 -15 26
-29 48 -40 26 -13 -6 8 -9 18 -6 23 3 5 0 9 -7 9 -7 0 -19 4 -28 7 -9 4 -21 0
-29 -9z"/>
<path d="M6758 2673 c6 -2 18 -2 25 0 6 3 1 5 -13 5 -14 0 -19 -2 -12 -5z"/>
<path d="M6625 2612 c-11 -15 -20 -31 -20 -37 -1 -5 -6 -9 -11 -8 -6 1 -31
-19 -55 -45 -24 -25 -33 -38 -19 -27 13 11 33 30 43 43 11 13 22 21 25 18 3
-3 11 -1 19 5 10 9 17 8 28 -1 11 -9 18 -10 28 -1 8 6 17 8 21 4 4 -4 4 1 0
11 -6 16 -8 17 -16 2 -5 -9 -14 -16 -19 -16 -6 0 -7 5 -4 10 4 6 3 10 -2 9
-19 -3 -34 2 -29 10 3 5 14 7 25 4 11 -3 21 2 24 11 4 11 1 13 -11 9 -15 -6
-15 -5 -3 10 7 9 10 17 5 17 -5 0 -18 -13 -29 -28z"/>
<path d="M6697 2593 c3 -7 6 -13 8 -13 1 0 7 6 13 13 8 10 6 13 -7 13 -11 0
-17 -6 -14 -13z"/>
<path d="M6560 2499 c0 -5 5 -7 10 -4 6 3 10 8 10 11 0 2 -4 4 -10 4 -5 0 -10
-5 -10 -11z"/>
<path d="M3663 2485 c0 -8 4 -12 9 -9 5 3 6 10 3 15 -9 13 -12 11 -12 -6z"/>
<path d="M6418 2407 c-36 -34 -63 -61 -60 -60 3 2 12 -3 20 -10 13 -10 15 -9
10 10 -5 17 3 29 29 52 20 17 40 28 46 24 5 -3 7 -1 4 4 -4 6 -1 16 7 22 11 9
15 9 19 -1 4 -9 6 -9 6 -1 2 29 -20 18 -81 -40z"/>
<path d="M6513 2446 c3 -7 1 -18 -4 -23 -12 -12 20 -11 39 1 17 10 5 26 -15
19 -11 -4 -14 -3 -9 5 4 7 2 12 -4 12 -7 0 -10 -6 -7 -14z"/>
<path d="M3730 2439 c0 -5 5 -7 10 -4 6 3 10 8 10 11 0 2 -4 4 -10 4 -5 0 -10
-5 -10 -11z"/>
<path d="M6453 2403 c9 -2 23 -2 30 0 6 3 -1 5 -18 5 -16 0 -22 -2 -12 -5z"/>
<path d="M6500 2390 c-8 -5 -12 -12 -9 -15 4 -3 12 1 19 10 14 17 11 19 -10 5z"/>
<path d="M6410 2375 c-20 -24 -6 -28 15 -5 10 11 13 20 8 20 -6 0 -16 -7 -23
-15z"/>
<path d="M6455 2379 c-4 -6 -5 -12 -2 -15 2 -3 7 2 10 11 7 17 1 20 -8 4z"/>
<path d="M3867 2363 c-4 -3 -7 -11 -7 -17 0 -6 5 -5 12 2 6 6 9 14 7 17 -3 3
-9 2 -12 -2z"/>
<path d="M6426 2337 c3 -10 9 -15 12 -12 3 3 0 11 -7 18 -10 9 -11 8 -5 -6z"/>
<path d="M3795 2330 c-3 -6 1 -7 9 -4 18 7 21 14 7 14 -6 0 -13 -4 -16 -10z"/>
<path d="M6328 2309 c-7 -4 -15 -6 -19 -3 -4 2 -10 0 -14 -5 -3 -6 4 -8 17 -5
13 3 31 6 40 6 10 -1 20 3 22 6 6 10 -31 10 -46 1z"/>
<path d="M6390 2300 c0 -5 7 -7 15 -4 8 4 15 8 15 10 0 2 -7 4 -15 4 -8 0 -15
-4 -15 -10z"/>
<path d="M3896 2285 c4 -8 11 -15 16 -15 6 0 5 6 -2 15 -7 8 -14 15 -16 15 -2
0 -1 -7 2 -15z"/>
<path d="M6325 2280 c-4 -6 -11 -8 -16 -5 -5 4 -9 1 -9 -6 0 -8 -4 -8 -16 1
-13 11 -20 9 -46 -17 l-30 -30 25 -5 c17 -3 34 4 57 24 18 15 39 28 46 28 8 0
14 5 14 10 0 13 -17 13 -25 0z m-42 -16 c9 -9 -19 -34 -38 -34 -9 0 -13 5 -10
10 4 6 11 8 16 5 5 -4 9 1 9 9 0 16 12 21 23 10z"/>
<path d="M6360 2280 c0 -5 5 -10 10 -10 6 0 10 5 10 10 0 6 -4 10 -10 10 -5 0
-10 -4 -10 -10z"/>
<path d="M3976 2267 c3 -10 9 -15 12 -12 3 3 0 11 -7 18 -10 9 -11 8 -5 -6z"/>
<path d="M6345 2250 c4 -6 11 -8 16 -5 14 9 11 15 -7 15 -8 0 -12 -5 -9 -10z"/>
<path d="M3935 2240 c-3 -6 1 -7 9 -4 18 7 21 14 7 14 -6 0 -13 -4 -16 -10z"/>
<path d="M6316 2235 c4 -8 8 -15 10 -15 2 0 4 7 4 15 0 8 -4 15 -10 15 -5 0
-7 -7 -4 -15z"/>
<path d="M4005 2199 c-4 -6 -5 -12 -2 -15 2 -3 7 2 10 11 7 17 1 20 -8 4z"/>
<path d="M6195 2200 c-3 -6 1 -7 9 -4 18 7 21 14 7 14 -6 0 -13 -4 -16 -10z"/>
<path d="M6211 2181 c-7 -5 -9 -11 -5 -14 5 -3 15 1 22 9 14 16 5 18 -17 5z"/>
<path d="M6250 2174 c0 -8 5 -12 10 -9 6 4 8 11 5 16 -9 14 -15 11 -15 -7z"/>
<path d="M6171 2153 c-1 -12 4 -25 9 -28 12 -7 12 2 0 30 -8 19 -9 19 -9 -2z"/>
<path d="M6100 2142 c-20 -16 -21 -19 -6 -31 9 -7 16 -10 16 -6 0 4 7 2 15 -5
8 -7 12 -16 9 -21 -3 -5 0 -9 5 -9 15 0 14 15 -3 29 -7 6 -12 22 -10 36 3 30
2 30 -26 7z m20 -12 c0 -5 -7 -10 -16 -10 -8 0 -12 5 -9 10 3 6 10 10 16 10 5
0 9 -4 9 -10z"/>
<path d="M4120 2140 c0 -5 7 -7 15 -4 8 4 15 8 15 10 0 2 -7 4 -15 4 -8 0 -15
-4 -15 -10z"/>
<path d="M4040 2124 c0 -8 5 -12 10 -9 6 3 10 10 10 16 0 5 -4 9 -10 9 -5 0
-10 -7 -10 -16z"/>
<path d="M4130 2120 c-21 -7 -21 -8 -5 -9 11 0 27 4 35 9 18 11 5 11 -30 0z"/>
<path d="M6038 2096 c-10 -7 -15 -16 -12 -19 4 -3 13 1 21 9 20 19 13 26 -9
10z"/>
<path d="M6070 2099 c5 -31 -1 -37 -34 -35 -34 1 -40 -7 -21 -30 11 -13 29 -8
20 5 -2 5 6 7 18 6 32 -4 34 -6 12 -15 -15 -6 -16 -9 -4 -9 18 -1 52 33 55 55
1 8 -1 12 -6 9 -5 -3 -16 2 -25 11 -13 13 -16 14 -15 3z m32 -34 c0 -5 -5 -11
-10 -13 -5 -1 -9 4 -9 13 0 9 4 14 9 13 5 -2 10 -8 10 -13z"/>
<path d="M4153 2064 c0 -17 43 -19 53 -3 4 7 1 10 -7 7 -8 -3 -21 -2 -30 3
-11 5 -16 3 -16 -7z"/>
<path d="M4160 2031 c0 -10 19 -25 25 -20 1 2 -3 10 -11 17 -8 7 -14 8 -14 3z"/>
<path d="M4220 2026 c0 -2 7 -7 16 -10 8 -3 12 -2 9 4 -6 10 -25 14 -25 6z"/>
<path d="M4200 2006 c0 -2 8 -10 18 -17 15 -13 16 -12 3 4 -13 16 -21 21 -21
13z"/>
<path d="M5878 1983 c-32 -22 -36 -28 -27 -45 9 -16 6 -25 -12 -45 -14 -14
-31 -22 -41 -20 -10 3 -18 2 -18 -1 0 -4 -3 -18 -5 -32 -5 -21 -4 -22 3 -5 5
11 15 20 23 21 34 2 40 5 35 13 -3 5 1 14 9 21 9 7 15 8 15 2 0 -14 48 9 55
26 3 9 -2 8 -17 -3 -25 -17 -42 -20 -33 -5 3 5 1 19 -5 31 -11 19 -10 20 12
15 12 -3 18 -3 11 0 -8 4 -3 13 15 29 35 31 27 30 -20 -2z"/>
<path d="M4270 1996 c0 -3 9 -10 20 -16 15 -8 25 -8 38 0 16 11 16 11 -1 6
-10 -3 -27 -1 -38 4 -10 6 -19 8 -19 6z"/>
<path d="M4359 1969 c-12 -8 -12 -9 1 -7 8 1 25 -3 38 -10 29 -17 28 -9 -1 11
-16 10 -28 12 -38 6z"/>
<path d="M5905 1950 c-3 -5 -1 -10 4 -10 6 0 11 5 11 10 0 6 -2 10 -4 10 -3 0
-8 -4 -11 -10z"/>
<path d="M5800 1932 c-20 -16 -21 -19 -6 -31 13 -11 19 -11 31 -1 17 14 20 36
6 44 -5 3 -19 -2 -31 -12z m22 -9 c-6 -2 -10 -9 -6 -14 3 -5 1 -9 -5 -9 -13 0
-22 15 -14 24 3 3 13 6 22 5 11 0 12 -2 3 -6z"/>
<path d="M4350 1931 c0 -5 9 -11 21 -14 13 -4 18 -10 14 -17 -4 -7 5 -4 21 6
41 26 42 26 11 19 -15 -4 -27 -3 -27 2 0 5 -9 9 -20 10 -11 1 -20 -2 -20 -6z"/>
<path d="M4446 1904 c-3 -8 -2 -12 4 -9 6 3 10 1 10 -6 0 -8 3 -9 13 0 8 6 18
7 22 3 5 -4 5 -2 1 5 -4 7 -14 9 -23 6 -11 -4 -14 -3 -9 5 4 7 3 12 -2 12 -6
0 -13 -7 -16 -16z"/>
<path d="M5748 1899 c-10 -5 -18 -18 -17 -27 0 -14 2 -14 6 -2 4 8 13 20 22
27 19 15 13 16 -11 2z"/>
<path d="M4403 1875 c0 -7 6 -11 14 -8 7 3 13 6 13 8 0 2 -6 5 -13 8 -8 3 -14
-1 -14 -8z"/>
<path d="M4498 1873 c7 -3 16 -2 19 1 4 3 -2 6 -13 5 -11 0 -14 -3 -6 -6z"/>
<path d="M5683 1859 c-36 -23 -44 -43 -15 -37 9 2 16 9 15 15 -2 7 6 15 17 18
11 4 20 11 20 16 0 12 0 12 -37 -12z"/>
<path d="M4497 1843 c3 -8 2 -13 -3 -11 -5 2 -10 -1 -12 -7 -2 -5 1 -11 7 -13
6 -2 11 2 11 8 0 6 8 9 18 6 12 -4 19 -1 19 8 0 9 -4 13 -9 10 -4 -3 -8 -1 -8
4 0 5 -6 9 -14 9 -8 0 -12 -6 -9 -14z"/>
<path d="M5720 1826 c7 -7 13 -7 20 0 6 6 3 10 -10 10 -13 0 -16 -4 -10 -10z"/>
<path d="M4601 1814 c0 -11 3 -14 6 -6 3 7 2 16 -1 19 -3 4 -6 -2 -5 -13z"/>
<path d="M5570 1792 c-36 -20 -86 -48 -112 -62 -36 -19 -48 -31 -48 -47 0 -25
14 -31 26 -11 4 7 3 8 -4 4 -7 -4 -12 -4 -12 1 0 14 14 29 33 36 15 6 17 3 12
-12 -3 -12 0 -21 10 -25 8 -3 15 -1 15 5 0 6 4 8 9 4 5 -3 13 -1 16 5 10 16
-14 40 -32 33 -11 -4 -14 -2 -9 5 10 16 26 15 45 -2 14 -13 19 -13 35 0 19 13
18 14 -13 14 -19 0 -30 4 -26 10 3 6 17 7 30 4 12 -3 26 -1 29 5 4 6 2 11 -5
11 -10 0 -10 3 -1 12 10 10 15 10 22 -2 7 -12 10 -11 16 5 4 11 15 25 23 32
30 23 6 13 -59 -25z m-60 -91 c0 -4 -6 -8 -14 -8 -8 0 -12 6 -9 14 5 13 23 9
23 -6z"/>
<path d="M4620 1811 c0 -6 6 -11 13 -12 6 0 3 -4 -7 -8 -19 -7 -19 -8 1 -13
16 -4 20 -1 19 15 -1 21 -26 38 -26 18z"/>
<path d="M5690 1801 c-13 -25 -13 -31 1 -31 5 0 7 5 4 10 -3 6 3 10 14 10 12
0 21 4 21 10 0 5 -7 6 -17 3 -11 -4 -14 -3 -9 5 4 7 5 12 2 12 -3 0 -10 -9
-16 -19z"/>
<path d="M4560 1800 c0 -6 7 -10 15 -10 8 0 15 2 15 4 0 2 -7 6 -15 10 -8 3
-15 1 -15 -4z"/>
<path d="M4664 1776 c0 -13 4 -22 9 -19 10 6 9 31 -2 37 -5 3 -8 -5 -7 -18z"/>
<path d="M5650 1790 c0 -5 5 -10 11 -10 5 0 7 5 4 10 -3 6 -8 10 -11 10 -2 0
-4 -4 -4 -10z"/>
<path d="M4557 1769 c7 -7 15 -10 18 -7 3 3 -2 9 -12 12 -14 6 -15 5 -6 -5z"/>
<path d="M4636 1752 c-2 -4 4 -13 15 -20 22 -14 25 -7 5 14 -8 8 -17 11 -20 6z"/>
<path d="M4725 1750 c-3 -5 1 -10 10 -10 9 0 13 5 10 10 -3 6 -8 10 -10 10 -2
0 -7 -4 -10 -10z"/>
<path d="M4680 1719 c0 -5 5 -7 10 -4 6 3 10 8 10 11 0 2 -4 4 -10 4 -5 0 -10
-5 -10 -11z"/>
<path d="M4775 1720 c-4 -6 3 -10 14 -10 25 0 27 6 6 13 -8 4 -17 2 -20 -3z"/>
<path d="M4709 1715 c-5 -19 -3 -31 6 -37 14 -11 25 -10 25 3 0 5 -4 7 -10 4
-5 -3 -10 1 -10 9 0 21 7 20 37 -4 16 -13 34 -18 47 -15 20 6 20 5 -3 -14 -13
-12 -18 -21 -12 -21 6 0 20 9 30 19 20 20 20 20 1 26 -11 4 -24 4 -29 1 -5 -3
-20 3 -34 14 -24 19 -46 26 -48 15z"/>
<path d="M4840 1690 c8 -5 20 -10 25 -10 6 0 3 5 -5 10 -8 5 -19 10 -25 10 -5
0 -3 -5 5 -10z"/>
<path d="M5367 1683 c-21 -11 -26 -18 -18 -27 6 -7 7 -17 3 -21 -4 -5 -1 -5 6
-1 7 5 11 14 8 21 -2 7 2 16 10 19 16 6 18 -8 4 -34 -6 -11 -6 -21 -1 -24 9
-6 27 71 19 79 -1 2 -16 -3 -31 -12z"/>
<path d="M4862 1650 c0 -14 2 -19 5 -12 2 6 2 18 0 25 -3 6 -5 1 -5 -13z"/>
<path d="M4884 1651 c0 -14 4 -17 12 -10 9 7 16 5 23 -8 9 -16 10 -16 11 5 0
12 -4 22 -9 22 -5 0 -16 2 -23 5 -9 4 -14 -2 -14 -14z"/>
<path d="M5308 1651 c-15 -5 -13 -8 7 -18 25 -11 31 -7 17 13 -4 6 -15 9 -24
5z"/>
<path d="M4954 1636 c11 -9 15 -16 10 -16 -6 0 -11 -7 -11 -15 0 -13 3 -13 19
2 10 9 17 17 16 18 -2 1 -14 8 -28 14 -24 11 -24 11 -6 -3z"/>
<path d="M5406 1634 c-5 -14 -4 -15 9 -4 17 14 19 20 6 20 -5 0 -12 -7 -15
-16z"/>
<path d="M4840 1631 c0 -7 -5 -9 -12 -5 -7 5 -8 3 -3 -5 5 -9 10 -10 18 -2 6
6 8 14 4 18 -4 3 -7 1 -7 -6z"/>
<path d="M5249 1624 c-13 -8 -46 -23 -73 -34 -27 -11 -47 -23 -44 -26 3 -3 24
2 46 11 22 9 48 15 58 13 10 -2 19 3 20 10 3 26 5 26 19 8 14 -18 15 -18 15
-2 0 9 5 14 10 11 6 -3 10 -2 10 3 0 17 -36 20 -61 6z"/>
<path d="M4978 1590 c-14 -17 -21 -30 -15 -30 13 1 52 49 45 55 -2 3 -16 -9
-30 -25z"/>
<path d="M5011 1587 c-11 -18 -11 -20 0 -9 18 16 44 15 59 -3 7 -8 20 -15 29
-14 13 0 14 1 1 6 -8 3 -22 11 -30 18 -29 23 -46 23 -59 2z"/>
<path d="M5340 1593 c-13 -15 -12 -16 4 -10 10 4 20 7 22 7 2 0 4 5 4 10 0 15
-13 12 -30 -7z"/>
<path d="M4900 1591 c0 -10 30 -24 37 -17 3 2 -5 9 -16 16 -12 6 -21 7 -21 1z"/>
<path d="M5300 1575 c-11 -13 -10 -14 4 -9 9 3 16 10 16 15 0 13 -6 11 -20 -6z"/>
<path d="M5030 1559 c0 -5 5 -7 12 -3 7 4 8 3 4 -5 -4 -6 -16 -9 -27 -6 -12 4
-19 2 -19 -6 0 -7 3 -9 7 -6 3 4 12 2 20 -4 7 -6 13 -8 13 -3 0 5 4 3 9 -5 6
-9 11 -10 15 -2 4 6 2 11 -4 11 -7 0 -9 8 -5 20 5 14 2 20 -9 20 -9 0 -16 -5
-16 -11z"/>
<path d="M5200 1566 c0 -2 7 -6 15 -10 8 -3 15 -1 15 4 0 6 -7 10 -15 10 -8 0
-15 -2 -15 -4z"/>
<path d="M5250 1560 c8 -5 20 -10 25 -10 6 0 3 5 -5 10 -8 5 -19 10 -25 10 -5
0 -3 -5 5 -10z"/>
<path d="M5160 1550 c0 -5 -8 -7 -17 -4 -17 5 -17 5 0 -6 9 -6 15 -15 12 -21
-4 -5 -1 -9 5 -9 7 0 10 6 7 14 -3 7 0 19 6 25 8 8 8 11 -1 11 -7 0 -12 -4
-12 -10z"/>
<path d="M5086 1543 c16 -3 20 -10 17 -23 -4 -15 -1 -18 16 -13 12 3 21 10 21
15 0 5 -4 7 -9 4 -5 -3 -11 1 -15 9 -3 8 -16 14 -28 14 -22 -2 -22 -2 -2 -6z"/>
<path d="M5188 1533 c6 -2 9 -10 6 -15 -4 -7 -2 -8 4 -4 18 11 14 26 -5 25
-11 0 -13 -3 -5 -6z"/>
<path d="M5126 3481 c-4 -5 3 -7 14 -4 23 6 26 13 6 13 -8 0 -17 -4 -20 -9z"/>
<path d="M5170 3480 c0 -6 7 -10 15 -10 8 0 15 2 15 4 0 2 -7 6 -15 10 -8 3
-15 1 -15 -4z"/>
<path d="M4939 3442 c-15 -13 -19 -21 -10 -26 6 -4 10 -3 9 3 -2 5 6 17 17 25
11 8 17 16 14 16 -4 0 -17 -8 -30 -18z"/>
<path d="M5007 3453 c-4 -3 -7 -11 -7 -17 0 -6 5 -5 12 2 6 6 9 14 7 17 -3 3
-9 2 -12 -2z"/>
<path d="M5087 3429 c7 -7 15 -10 18 -7 3 3 -2 9 -12 12 -14 6 -15 5 -6 -5z"/>
<path d="M5142 3429 c-19 -7 -23 -29 -6 -29 3 0 2 5 -1 10 -3 6 1 10 9 10 8 0
18 5 21 10 7 12 7 12 -23 -1z"/>
<path d="M4955 3420 c4 -6 11 -8 16 -5 14 9 11 15 -7 15 -8 0 -12 -5 -9 -10z"/>
<path d="M5028 3413 c7 -3 16 -2 19 1 4 3 -2 6 -13 5 -11 0 -14 -3 -6 -6z"/>
<path d="M5060 3410 c0 -5 5 -10 10 -10 6 0 10 5 10 10 0 6 -4 10 -10 10 -5 0
-10 -4 -10 -10z"/>
<path d="M4988 3403 c7 -3 16 -2 19 1 4 3 -2 6 -13 5 -11 0 -14 -3 -6 -6z"/>
<path d="M5168 3403 c7 -3 16 -2 19 1 4 3 -2 6 -13 5 -11 0 -14 -3 -6 -6z"/>
<path d="M4948 3393 c7 -3 16 -2 19 1 4 3 -2 6 -13 5 -11 0 -14 -3 -6 -6z"/>
<path d="M5248 3388 c-9 -5 -6 -8 9 -8 12 0 24 4 27 8 7 11 -19 11 -36 0z"/>
<path d="M5210 3350 c0 -5 5 -10 11 -10 5 0 7 5 4 10 -3 6 -8 10 -11 10 -2 0
-4 -4 -4 -10z"/>
<path d="M5305 3350 c-3 -5 -1 -10 4 -10 6 0 11 5 11 10 0 6 -2 10 -4 10 -3 0
-8 -4 -11 -10z"/>
<path d="M5235 3330 c-3 -5 -1 -10 4 -10 6 0 11 5 11 10 0 6 -2 10 -4 10 -3 0
-8 -4 -11 -10z"/>
<path d="M5372 3310 c3 -8 2 -22 -3 -31 -5 -10 -4 -16 5 -16 13 0 14 43 0 55
-4 4 -4 0 -2 -8z"/>
<path d="M4850 3300 c-9 -6 -10 -10 -3 -10 6 0 15 5 18 10 8 12 4 12 -15 0z"/>
<path d="M5245 3300 c-8 -13 5 -13 25 0 13 8 13 10 -2 10 -9 0 -20 -4 -23 -10z"/>
<path d="M5330 3255 c-11 -13 -10 -14 4 -9 9 3 16 10 16 15 0 13 -6 11 -20 -6z"/>
<path d="M5231 3249 c-1 -8 6 -24 15 -35 15 -19 15 -19 6 1 -5 11 -12 27 -15
35 -5 13 -6 13 -6 -1z"/>
<path d="M5270 3229 c0 -5 5 -7 10 -4 6 3 10 8 10 11 0 2 -4 4 -10 4 -5 0 -10
-5 -10 -11z"/>
<path d="M5351 3199 c-9 -16 -15 -19 -21 -9 -5 7 -10 8 -14 2 -3 -5 2 -13 11
-16 16 -7 43 16 43 36 0 13 -4 10 -19 -13z"/>
<path d="M5285 3180 c-3 -5 -1 -10 4 -10 6 0 11 5 11 10 0 6 -2 10 -4 10 -3 0
-8 -4 -11 -10z"/>
<path d="M5355 3160 c-3 -6 1 -7 9 -4 18 7 21 14 7 14 -6 0 -13 -4 -16 -10z"/>
<path d="M5245 3150 c-3 -6 1 -7 9 -4 18 7 21 14 7 14 -6 0 -13 -4 -16 -10z"/>
<path d="M5307 3134 c-7 -7 38 -54 51 -54 4 0 0 6 -9 13 -8 7 -20 20 -25 30
-6 10 -13 15 -17 11z"/>
<path d="M5266 3095 c11 -8 14 -15 7 -15 -7 0 -13 -5 -13 -12 0 -8 7 -6 18 5
15 16 15 19 2 27 -24 15 -36 11 -14 -5z"/>
<path d="M5220 3070 c0 -5 7 -7 15 -4 8 4 15 8 15 10 0 2 -7 4 -15 4 -8 0 -15
-4 -15 -10z"/>
<path d="M5276 3051 c-4 -5 3 -7 14 -4 23 6 26 13 6 13 -8 0 -17 -4 -20 -9z"/>
<path d="M5250 3010 c-14 -10 -21 -22 -17 -26 4 -4 7 -2 7 4 0 7 5 12 11 12 6
0 8 -8 4 -19 -7 -24 12 -38 28 -21 9 10 8 12 -5 7 -24 -9 -17 44 8 54 13 5 14
8 4 8 -8 0 -26 -8 -40 -19z"/>
<path d="M5280 3001 c0 -6 4 -13 10 -16 6 -3 7 1 4 9 -7 18 -14 21 -14 7z"/>
<path d="M5166 2943 c-6 -14 -5 -15 5 -6 7 7 10 15 7 18 -3 3 -9 -2 -12 -12z"/>
<path d="M5226 2937 c3 -10 9 -15 12 -12 3 3 0 11 -7 18 -10 9 -11 8 -5 -6z"/>
<path d="M5145 2910 c-3 -6 1 -7 9 -4 18 7 21 14 7 14 -6 0 -13 -4 -16 -10z"/>
<path d="M5188 2893 c7 -3 16 -2 19 1 4 3 -2 6 -13 5 -11 0 -14 -3 -6 -6z"/>
<path d="M5121 2868 c-13 -20 -12 -22 1 -11 8 7 18 10 22 6 4 -4 4 0 0 10 -8
21 -6 21 -23 -5z"/>
<path d="M5188 2873 c-10 -2 -18 -9 -18 -14 0 -14 16 -11 30 6 7 8 11 14 9 14
-2 -1 -12 -3 -21 -6z"/>
<path d="M5084 2829 c-3 -6 2 -18 12 -27 14 -14 16 -14 6 -1 -9 12 -9 18 0 27
9 9 9 12 1 12 -7 0 -15 -5 -19 -11z"/>
<path d="M5045 2750 c-3 -6 1 -7 9 -4 18 7 21 14 7 14 -6 0 -13 -4 -16 -10z"/>
<path d="M5004 2728 l-19 -23 23 19 c21 18 27 26 19 26 -2 0 -12 -10 -23 -22z"/>
<path d="M5015 2700 c4 -6 11 -8 16 -5 14 9 11 15 -7 15 -8 0 -12 -5 -9 -10z"/>
<path d="M5390 2675 c0 -8 5 -15 11 -15 5 0 8 4 5 9 -4 5 0 12 6 14 8 3 6 6
-4 6 -10 1 -18 -6 -18 -14z"/>
<path d="M5380 2638 c0 -4 4 -8 9 -8 6 0 12 4 15 8 3 5 -1 9 -9 9 -8 0 -15 -4
-15 -9z"/>
<path d="M5359 2618 c-7 -13 -4 -48 3 -48 6 0 8 6 5 14 -3 7 0 19 6 25 8 8 8
11 -1 11 -7 0 -13 -1 -13 -2z"/>
<path d="M4847 2552 c-26 -26 -47 -52 -47 -57 0 -5 14 6 31 25 26 30 30 32 26
12 -3 -13 -1 -20 5 -16 5 3 8 14 5 23 -6 25 18 44 33 26 7 -8 18 -15 24 -15 6
0 3 6 -6 14 -13 10 -15 15 -6 24 9 9 8 12 -3 12 -8 0 -36 -22 -62 -48z"/>
<path d="M4982 2560 c-7 -11 -8 -20 -3 -20 9 0 24 30 18 36 -1 2 -8 -6 -15
-16z"/>
<path d="M5011 2562 c-9 -16 -6 -19 25 -19 18 0 34 4 34 9 0 5 -11 6 -25 2
-15 -4 -25 -2 -25 4 0 6 8 13 18 15 16 4 16 5 0 6 -10 0 -22 -7 -27 -17z"/>
<path d="M5068 2573 c7 -3 16 -2 19 1 4 3 -2 6 -13 5 -11 0 -14 -3 -6 -6z"/>
<path d="M5164 2569 c29 -4 56 -4 65 1 11 6 -5 9 -49 9 l-65 -1 49 -9z"/>
<path d="M5258 2573 c6 -2 18 -2 25 0 6 3 1 5 -13 5 -14 0 -19 -2 -12 -5z"/>
<path d="M4942 2550 c-7 -12 -18 -18 -24 -14 -7 4 -8 3 -4 -4 9 -15 41 0 50
23 8 22 -7 18 -22 -5z"/>
<path d="M5115 2550 c-3 -6 1 -7 9 -4 18 7 21 14 7 14 -6 0 -13 -4 -16 -10z"/>
<path d="M5250 2549 c0 -5 5 -7 10 -4 6 3 10 8 10 11 0 2 -4 4 -10 4 -5 0 -10
-5 -10 -11z"/>
<path d="M5280 2556 c0 -9 30 -14 35 -6 4 6 -3 10 -14 10 -12 0 -21 -2 -21 -4z"/>
<path d="M5336 2552 c-4 -7 -3 -12 3 -12 5 0 11 -10 13 -22 3 -21 4 -21 9 4 4
15 3 25 -2 23 -4 -3 -9 0 -11 7 -3 9 -6 9 -12 0z"/>
<path d="M5178 2538 c0 -7 -2 -17 -3 -23 -2 -5 -3 -16 -4 -23 0 -7 -5 -10 -11
-7 -5 3 -10 1 -10 -5 0 -7 8 -9 23 -5 36 12 42 11 39 -5 -2 -8 0 -11 5 -7 4 5
8 22 9 38 0 22 -4 29 -18 29 -11 0 -16 5 -13 10 3 6 1 10 -4 10 -6 0 -12 -6
-13 -12z m42 -32 c0 -2 -8 -6 -18 -8 -12 -4 -18 1 -19 13 -2 16 2 17 18 9 10
-6 19 -12 19 -14z"/>
<path d="M5090 2530 c0 -5 5 -10 11 -10 5 0 7 5 4 10 -3 6 -8 10 -11 10 -2 0
-4 -4 -4 -10z"/>
<path d="M5125 2531 c-3 -6 -1 -11 5 -11 7 0 10 -7 7 -14 -4 -10 -1 -13 9 -9
12 4 12 8 2 22 -7 9 -13 17 -14 19 -1 2 -5 -1 -9 -7z"/>
<path d="M4985 2520 c-16 -7 -17 -9 -3 -9 9 -1 20 4 23 9 7 11 7 11 -20 0z"/>
<path d="M5030 2519 c0 -5 5 -7 10 -4 6 3 10 8 10 11 0 2 -4 4 -10 4 -5 0 -10
-5 -10 -11z"/>
<path d="M5257 2511 c14 -12 18 -22 12 -28 -6 -6 3 -9 25 -9 28 1 32 3 23 14
-7 10 -13 10 -15 3 -2 -6 -8 -11 -13 -11 -6 0 -8 4 -5 8 5 9 -28 42 -42 42 -4
-1 3 -9 15 -19z"/>
<path d="M5295 2518 c11 -6 28 -18 38 -26 16 -14 16 -16 1 -34 -22 -23 -13
-23 14 1 25 21 28 31 8 31 -20 0 -40 27 -24 32 7 3 -3 5 -22 6 -30 1 -32 -1
-15 -10z"/>
<path d="M4853 2503 c-33 -6 -47 -28 -20 -30 17 -2 19 0 7 7 -13 8 -13 10 1
10 9 0 21 -11 27 -25 6 -14 17 -25 24 -25 10 0 10 2 0 9 -18 11 12 36 30 25
10 -5 10 -4 2 5 -9 10 -17 10 -34 1 -21 -11 -22 -10 -17 9 3 11 4 20 4 20 -1
-1 -12 -4 -24 -6z"/>
<path d="M5043 2496 c-3 -5 -1 -6 4 -3 6 4 16 -6 22 -23 5 -17 16 -30 23 -30
10 0 10 2 -1 9 -8 5 -12 19 -9 33 3 18 0 24 -15 24 -10 0 -21 -5 -24 -10z"/>
<path d="M5103 2495 c-8 -9 -9 -16 -3 -20 6 -3 13 1 16 10 9 21 2 26 -13 10z"/>
<path d="M4976 2471 c-3 -5 1 -14 9 -21 10 -9 15 -9 15 -1 0 6 -5 11 -11 11
-5 0 -7 5 -4 10 3 6 4 10 1 10 -3 0 -7 -4 -10 -9z"/>
<path d="M5000 2476 c0 -2 7 -6 15 -10 8 -3 15 -1 15 4 0 6 -7 10 -15 10 -8 0
-15 -2 -15 -4z"/>
<path d="M4795 2450 c-3 -6 1 -7 9 -4 18 7 21 14 7 14 -6 0 -13 -4 -16 -10z"/>
<path d="M4830 2449 c0 -5 5 -7 10 -4 6 3 10 8 10 11 0 2 -4 4 -10 4 -5 0 -10
-5 -10 -11z"/>
<path d="M5035 2450 c-3 -6 1 -7 9 -4 18 7 21 14 7 14 -6 0 -13 -4 -16 -10z"/>
<path d="M5115 2450 c-3 -5 -2 -10 4 -10 5 0 13 5 16 10 3 6 2 10 -4 10 -5 0
-13 -4 -16 -10z"/>
<path d="M5150 2449 c0 -5 5 -7 10 -4 6 3 10 8 10 11 0 2 -4 4 -10 4 -5 0 -10
-5 -10 -11z"/>
<path d="M5248 2453 c7 -3 16 -2 19 1 4 3 -2 6 -13 5 -11 0 -14 -3 -6 -6z"/>
<path d="M3630 3411 c0 -5 9 -7 20 -4 11 3 20 7 20 9 0 2 -9 4 -20 4 -11 0
-20 -4 -20 -9z"/>
<path d="M3693 3413 c9 -2 25 -2 35 0 9 3 1 5 -18 5 -19 0 -27 -2 -17 -5z"/>
<path d="M3770 3416 c0 -2 7 -6 15 -10 8 -3 15 -1 15 4 0 6 -7 10 -15 10 -8 0
-15 -2 -15 -4z"/>
<path d="M3818 3413 c6 -2 18 -2 25 0 6 3 1 5 -13 5 -14 0 -19 -2 -12 -5z"/>
<path d="M3865 3410 c-3 -5 -2 -10 4 -10 5 0 13 5 16 10 3 6 2 10 -4 10 -5 0
-13 -4 -16 -10z"/>
<path d="M3990 3411 c0 -6 10 -8 21 -6 33 6 36 15 6 15 -15 0 -27 -4 -27 -9z"/>
<path d="M4058 3413 c7 -3 16 -2 19 1 4 3 -2 6 -13 5 -11 0 -14 -3 -6 -6z"/>
<path d="M4173 3413 c9 -2 25 -2 35 0 9 3 1 5 -18 5 -19 0 -27 -2 -17 -5z"/>
<path d="M4338 3413 c7 -3 16 -2 19 1 4 3 -2 6 -13 5 -11 0 -14 -3 -6 -6z"/>
<path d="M5688 3413 c12 -2 32 -2 45 0 12 2 2 4 -23 4 -25 0 -35 -2 -22 -4z"/>
<path d="M5808 3413 c12 -2 32 -2 45 0 12 2 2 4 -23 4 -25 0 -35 -2 -22 -4z"/>
<path d="M5880 3416 c0 -2 9 -6 20 -9 11 -3 20 -1 20 4 0 5 -9 9 -20 9 -11 0
-20 -2 -20 -4z"/>
<path d="M5944 3405 c7 -8 19 -10 33 -4 14 5 23 4 27 -4 2 -7 5 -4 5 5 1 14
-7 18 -38 16 -30 -1 -36 -4 -27 -13z"/>
<path d="M6020 3410 c0 -5 7 -7 15 -4 8 4 15 8 15 10 0 2 -7 4 -15 4 -8 0 -15
-4 -15 -10z"/>
<path d="M6060 3408 c0 -4 4 -8 9 -8 6 0 12 4 15 8 3 5 -1 9 -9 9 -8 0 -15 -4
-15 -9z"/>
<path d="M6234 3408 c-3 -4 6 -7 20 -6 15 1 26 6 26 10 0 9 -40 6 -46 -4z"/>
<path d="M6298 3413 c6 -3 10 -9 7 -14 -4 -5 1 -6 9 -3 23 9 19 20 -6 21 -13
0 -17 -1 -10 -4z"/>
<path d="M6340 3410 c0 -5 14 -7 30 -5 19 3 30 0 30 -8 0 -9 2 -9 8 -1 10 15
125 16 134 1 5 -8 8 -6 8 6 0 16 -10 18 -105 16 -58 -1 -105 -5 -105 -9z"/>
<path d="M6610 3416 c0 -2 11 -6 25 -8 14 -3 25 -1 25 3 0 5 -11 9 -25 9 -14
0 -25 -2 -25 -4z"/>
<path d="M6670 3409 c0 -5 5 -7 10 -4 6 3 10 8 10 11 0 2 -4 4 -10 4 -5 0 -10
-5 -10 -11z"/>
<path d="M6707 3409 c8 -8 16 -8 30 0 16 9 14 10 -11 11 -22 0 -27 -3 -19 -11z"/>
<path d="M6765 3410 c3 -5 8 -10 11 -10 2 0 4 5 4 10 0 6 -5 10 -11 10 -5 0
-7 -4 -4 -10z"/>
</g>
</svg>
